<?xml version="1.0" encoding="UTF-8" standalone="no"?>
<!DOCTYPE svg PUBLIC "-//W3C//DTD SVG 1.1//EN"
 "http://www.w3.org/Graphics/SVG/1.1/DTD/svg11.dtd">
<!-- Generated by graphviz version 2.40.1 (20161225.0304)
 -->
<!-- Title: %3 Pages: 1 -->
<svg width="1192pt" height="603pt"
 viewBox="0.00 0.00 1191.63 602.70" xmlns="http://www.w3.org/2000/svg" xmlns:xlink="http://www.w3.org/1999/xlink">
<g id="graph0" class="graph" transform="scale(1 1) rotate(0) translate(4 598.7006)">
<title>%3</title>
<polygon fill="#ffffff" stroke="transparent" points="-4,4 -4,-598.7006 1187.6314,-598.7006 1187.6314,4 -4,4"/>
<g id="clust1" class="cluster">
<title>cluster_read</title>
<polygon fill="none" stroke="#000000" points="219.6314,-306.2203 219.6314,-586.7006 1056.6314,-586.7006 1056.6314,-306.2203 219.6314,-306.2203"/>
<text text-anchor="middle" x="638.1314" y="-571.5006" font-family="Times,serif" font-size="14.00" fill="#000000">Human&#45;readable</text>
</g>
<g id="clust2" class="cluster">
<title>cluster_write</title>
<polygon fill="none" stroke="#000000" points="227.6314,-462.9605 227.6314,-555.7006 1048.6314,-555.7006 1048.6314,-462.9605 227.6314,-462.9605"/>
<text text-anchor="middle" x="638.1314" y="-540.5006" font-family="Times,serif" font-size="14.00" fill="#000000">Human&#45;editable</text>
</g>
<!-- hfst -->
<g id="node1" class="node">
<title>hfst</title>
<ellipse fill="none" stroke="#000000" cx="538.6314" cy="-131.6102" rx="77.5641" ry="26.7407"/>
<text text-anchor="middle" x="538.6314" y="-135.4102" font-family="Times,serif" font-size="14.00" fill="#000000">HFST binary file</text>
<text text-anchor="middle" x="538.6314" y="-120.4102" font-family="Times,serif" font-size="14.00" fill="#000000">(.hfst)</text>
</g>
<!-- hfstol -->
<g id="node3" class="node">
<title>hfstol</title>
<ellipse fill="none" stroke="#000000" cx="538.6314" cy="-26.8701" rx="121.7449" ry="26.7407"/>
<text text-anchor="middle" x="538.6314" y="-30.6701" font-family="Times,serif" font-size="14.00" fill="#000000">HFST optimized&#45;lookup file</text>
<text text-anchor="middle" x="538.6314" y="-15.6701" font-family="Times,serif" font-size="14.00" fill="#000000">(.hfstol)</text>
</g>
<!-- hfst&#45;&gt;hfstol -->
<g id="edge10" class="edge">
<title>hfst&#45;&gt;hfstol</title>
<path fill="none" stroke="#000000" d="M538.6314,-104.637C538.6314,-92.2976 538.6314,-77.4761 538.6314,-64.0972"/>
<polygon fill="#000000" stroke="#000000" points="542.1315,-63.7518 538.6314,-53.7518 535.1315,-63.7519 542.1315,-63.7518"/>
<text text-anchor="middle" x="630.1314" y="-75.5401" font-family="Times,serif" font-size="14.00" fill="#000000">hfst&#45;fst2fst in.hfst &#45;O &gt; out.hfstol</text>
</g>
<!-- bin -->
<g id="node2" class="node">
<title>bin</title>
<ellipse fill="none" stroke="#000000" cx="437.6314" cy="-236.3503" rx="88.2768" ry="26.7407"/>
<text text-anchor="middle" x="437.6314" y="-240.1503" font-family="Times,serif" font-size="14.00" fill="#000000">lttoolbox binary file</text>
<text text-anchor="middle" x="437.6314" y="-225.1503" font-family="Times,serif" font-size="14.00" fill="#000000">(.bin)</text>
</g>
<!-- bin&#45;&gt;hfst -->
<g id="edge11" class="edge">
<title>bin&#45;&gt;hfst</title>
<path fill="none" stroke="#000000" d="M422.701,-209.6026C418.6606,-198.5926 417.0073,-186.1753 423.6314,-176.4802 429.5814,-167.7719 447.9556,-159.1271 468.3209,-151.7842"/>
<polygon fill="#000000" stroke="#000000" points="469.4775,-155.0877 477.7805,-148.5065 467.1857,-148.4735 469.4775,-155.0877"/>
<text text-anchor="middle" x="532.6314" y="-180.2802" font-family="Times,serif" font-size="14.00" fill="#000000">lt&#45;print &#45;H in.bin | hfst&#45;txt2fst &gt; out.hfst</text>
</g>
<!-- att -->
<g id="node4" class="node">
<title>att</title>
<ellipse fill="none" stroke="#000000" cx="298.6314" cy="-341.0904" rx="70.922" ry="26.7407"/>
<text text-anchor="middle" x="298.6314" y="-344.8904" font-family="Times,serif" font-size="14.00" fill="#000000">AT&amp;T text file</text>
<text text-anchor="middle" x="298.6314" y="-329.8904" font-family="Times,serif" font-size="14.00" fill="#000000">(.att)</text>
</g>
<!-- att&#45;&gt;hfst -->
<g id="edge5" class="edge">
<title>att&#45;&gt;hfst</title>
<path fill="none" stroke="#000000" d="M219.762,-333.0547C115.6428,-319.3368 -47.729,-285.1787 13.6314,-209.4802 41.5184,-175.077 323.6025,-148.4297 462.3642,-137.2916"/>
<polygon fill="#000000" stroke="#000000" points="219.5927,-336.5615 229.9559,-334.3579 220.4805,-329.618 219.5927,-336.5615"/>
<text text-anchor="middle" x="87.6314" y="-232.6503" font-family="Times,serif" font-size="14.00" fill="#000000">hfst&#45;fst2txt in.hfst &gt; out.att</text>
</g>
<!-- att&#45;&gt;hfst -->
<g id="edge6" class="edge">
<title>att&#45;&gt;hfst</title>
<path fill="none" stroke="#000000" d="M248.927,-321.5939C235.7984,-314.8834 222.3251,-306.4307 211.6314,-296.2203 183.0877,-268.9668 167.9786,-240.298 192.6314,-209.4802 224.6065,-169.5091 360.9988,-148.6113 452.6864,-138.8722"/>
<polygon fill="#000000" stroke="#000000" points="453.2157,-142.3362 462.8014,-137.8236 452.4938,-135.3735 453.2157,-142.3362"/>
<text text-anchor="middle" x="266.6314" y="-232.6503" font-family="Times,serif" font-size="14.00" fill="#000000">hfst&#45;txt2fst in.att &gt; out.hfst</text>
</g>
<!-- att&#45;&gt;bin -->
<g id="edge8" class="edge">
<title>att&#45;&gt;bin</title>
<path fill="none" stroke="#000000" d="M324.3186,-315.7415C336.153,-304.6102 350.6508,-291.7153 364.6314,-281.2203 371.6433,-275.9567 379.2958,-270.7384 386.9224,-265.8236"/>
<polygon fill="#000000" stroke="#000000" points="389.2328,-268.5045 395.8233,-260.209 385.4981,-262.5839 389.2328,-268.5045"/>
<text text-anchor="middle" x="429.1314" y="-285.0203" font-family="Times,serif" font-size="14.00" fill="#000000">lt&#45;comp lr in.att out.bin</text>
</g>
<!-- att&#45;&gt;bin -->
<g id="edge9" class="edge">
<title>att&#45;&gt;bin</title>
<path fill="none" stroke="#000000" d="M237.3184,-318.0631C219.4847,-307.9547 207.6517,-295.2023 219.6314,-281.2203 236.6042,-261.4108 310.0954,-268.5501 335.6314,-263.2203 347.642,-260.7136 360.3524,-257.6784 372.5737,-254.5632"/>
<polygon fill="#000000" stroke="#000000" points="235.9878,-321.3155 246.4771,-322.8068 239.2072,-315.0997 235.9878,-321.3155"/>
<text text-anchor="middle" x="281.6314" y="-285.0203" font-family="Times,serif" font-size="14.00" fill="#000000">lt&#45;print in.bin &gt; out.att</text>
</g>
<!-- lexc -->
<g id="node5" class="node">
<title>lexc</title>
<ellipse fill="none" stroke="#000000" cx="667.6314" cy="-497.8305" rx="73.5782" ry="26.7407"/>
<text text-anchor="middle" x="667.6314" y="-501.6305" font-family="Times,serif" font-size="14.00" fill="#000000">Lexc source file</text>
<text text-anchor="middle" x="667.6314" y="-486.6305" font-family="Times,serif" font-size="14.00" fill="#000000">(.lexc)</text>
</g>
<!-- lexc&#45;&gt;hfst -->
<g id="edge2" class="edge">
<title>lexc&#45;&gt;hfst</title>
<path fill="none" stroke="#000000" d="M660.9297,-470.8971C658.181,-457.6085 655.6314,-441.2866 655.6314,-426.4605 655.6314,-426.4605 655.6314,-426.4605 655.6314,-236.3503 655.6314,-209.0236 659.1276,-197.4715 641.6314,-176.4802 633.1726,-166.3316 621.9793,-158.4122 610.0907,-152.2528"/>
<polygon fill="#000000" stroke="#000000" points="611.4313,-149.0147 600.8977,-147.8779 608.4233,-155.3355 611.4313,-149.0147"/>
<text text-anchor="middle" x="728.1314" y="-337.3904" font-family="Times,serif" font-size="14.00" fill="#000000">hfst&#45;lexc in.lexc &gt; out.hfst</text>
</g>
<!-- lexd -->
<g id="node6" class="node">
<title>lexd</title>
<ellipse fill="none" stroke="#000000" cx="309.6314" cy="-497.8305" rx="74.4932" ry="26.7407"/>
<text text-anchor="middle" x="309.6314" y="-501.6305" font-family="Times,serif" font-size="14.00" fill="#000000">Lexd source file</text>
<text text-anchor="middle" x="309.6314" y="-486.6305" font-family="Times,serif" font-size="14.00" fill="#000000">(.lexd)</text>
</g>
<!-- lexd&#45;&gt;att -->
<g id="edge1" class="edge">
<title>lexd&#45;&gt;att</title>
<path fill="none" stroke="#000000" d="M307.7405,-470.8859C305.946,-445.3168 303.2339,-406.672 301.2355,-378.196"/>
<polygon fill="#000000" stroke="#000000" points="304.7261,-377.9383 300.5345,-368.2079 297.7433,-378.4284 304.7261,-377.9383"/>
<text text-anchor="middle" x="363.1314" y="-422.7605" font-family="Times,serif" font-size="14.00" fill="#000000">lexd in.lexd &gt; out.att</text>
</g>
<!-- twol -->
<g id="node7" class="node">
<title>twol</title>
<ellipse fill="none" stroke="#000000" cx="824.6314" cy="-497.8305" rx="65.1077" ry="26.7407"/>
<text text-anchor="middle" x="824.6314" y="-501.6305" font-family="Times,serif" font-size="14.00" fill="#000000">Twol rule file</text>
<text text-anchor="middle" x="824.6314" y="-486.6305" font-family="Times,serif" font-size="14.00" fill="#000000">(.twol)</text>
</g>
<!-- twol&#45;&gt;hfst -->
<g id="edge3" class="edge">
<title>twol&#45;&gt;hfst</title>
<path fill="none" stroke="#000000" d="M831.3331,-470.8971C834.0819,-457.6085 836.6314,-441.2866 836.6314,-426.4605 836.6314,-426.4605 836.6314,-426.4605 836.6314,-236.3503 836.6314,-190.3451 708.6238,-159.6522 620.4022,-143.962"/>
<polygon fill="#000000" stroke="#000000" points="620.8419,-140.4859 610.3891,-142.2147 619.6385,-147.3817 620.8419,-140.4859"/>
<text text-anchor="middle" x="913.6314" y="-337.3904" font-family="Times,serif" font-size="14.00" fill="#000000">hfst&#45;twolc in.twol &gt; out.hfst</text>
</g>
<!-- twoc -->
<g id="node8" class="node">
<title>twoc</title>
<ellipse fill="none" stroke="#000000" cx="974.6314" cy="-497.8305" rx="66.4361" ry="26.7407"/>
<text text-anchor="middle" x="974.6314" y="-501.6305" font-family="Times,serif" font-size="14.00" fill="#000000">Twoc rule file</text>
<text text-anchor="middle" x="974.6314" y="-486.6305" font-family="Times,serif" font-size="14.00" fill="#000000">(.twoc)</text>
</g>
<!-- twoc&#45;&gt;hfst -->
<g id="edge4" class="edge">
<title>twoc&#45;&gt;hfst</title>
<path fill="none" stroke="#000000" d="M1003.9747,-473.421C1015.7698,-460.8464 1026.6314,-444.3973 1026.6314,-426.4605 1026.6314,-426.4605 1026.6314,-426.4605 1026.6314,-236.3503 1026.6314,-195.5616 762.6426,-158.1128 622.9927,-141.156"/>
<polygon fill="#000000" stroke="#000000" points="623.095,-137.6431 612.7481,-139.9217 622.2576,-144.5928 623.095,-137.6431"/>
<text text-anchor="middle" x="1105.1314" y="-337.3904" font-family="Times,serif" font-size="14.00" fill="#000000">hfst&#45;twolc in.twoc &gt; out.hfst</text>
</g>
<!-- dix -->
<g id="node9" class="node">
<title>dix</title>
<ellipse fill="none" stroke="#000000" cx="488.6314" cy="-497.8305" rx="86.9483" ry="26.7407"/>
<text text-anchor="middle" x="488.6314" y="-501.6305" font-family="Times,serif" font-size="14.00" fill="#000000">Monodix XML file</text>
<text text-anchor="middle" x="488.6314" y="-486.6305" font-family="Times,serif" font-size="14.00" fill="#000000">(.dix)</text>
</g>
<!-- dix&#45;&gt;bin -->
<g id="edge7" class="edge">
<title>dix&#45;&gt;bin</title>
<path fill="none" stroke="#000000" d="M492.2455,-470.8774C498.5228,-420.4418 509.3434,-313.9431 493.6314,-281.2203 491.3312,-276.4298 488.2428,-271.9899 484.6926,-267.9169"/>
<polygon fill="#000000" stroke="#000000" points="486.9075,-265.1796 477.3822,-260.5405 481.9355,-270.1071 486.9075,-265.1796"/>
<text text-anchor="middle" x="567.1314" y="-389.7605" font-family="Times,serif" font-size="14.00" fill="#000000">lt&#45;comp lr in.dix out.bin</text>
</g>
</g>
</svg>
