<?xml version="1.0" encoding="UTF-8" standalone="no"?>
<!DOCTYPE svg PUBLIC "-//W3C//DTD SVG 1.1//EN"
 "http://www.w3.org/Graphics/SVG/1.1/DTD/svg11.dtd">
<!-- Generated by graphviz version 2.40.1 (20161225.0304)
 -->
<!-- Title: %3 Pages: 1 -->
<svg width="1054pt" height="498pt"
 viewBox="0.00 0.00 1054.00 497.96" xmlns="http://www.w3.org/2000/svg" xmlns:xlink="http://www.w3.org/1999/xlink">
<g id="graph0" class="graph" transform="scale(1 1) rotate(0) translate(4 493.9605)">
<title>%3</title>
<polygon fill="#ffffff" stroke="transparent" points="-4,4 -4,-493.9605 1050,-493.9605 1050,4 -4,4"/>
<g id="clust1" class="cluster">
<title>cluster_read</title>
<polygon fill="none" stroke="#000000" points="8,-201.4802 8,-481.9605 846,-481.9605 846,-201.4802 8,-201.4802"/>
<text text-anchor="middle" x="427" y="-466.7605" font-family="Times,serif" font-size="14.00" fill="#000000">Human&#45;readable</text>
</g>
<g id="clust2" class="cluster">
<title>cluster_write</title>
<polygon fill="none" stroke="#000000" points="16,-358.2203 16,-450.9605 838,-450.9605 838,-358.2203 16,-358.2203"/>
<text text-anchor="middle" x="427" y="-435.7605" font-family="Times,serif" font-size="14.00" fill="#000000">Human&#45;editable</text>
</g>
<!-- hfst -->
<g id="node1" class="node">
<title>hfst</title>
<ellipse fill="none" stroke="#000000" cx="382" cy="-131.6102" rx="77.5641" ry="26.7407"/>
<text text-anchor="middle" x="382" y="-135.4102" font-family="Times,serif" font-size="14.00" fill="#000000">HFST binary file</text>
<text text-anchor="middle" x="382" y="-120.4102" font-family="Times,serif" font-size="14.00" fill="#000000">(.hfst)</text>
</g>
<!-- hfstol -->
<g id="node3" class="node">
<title>hfstol</title>
<ellipse fill="none" stroke="#000000" cx="382" cy="-26.8701" rx="121.7449" ry="26.7407"/>
<text text-anchor="middle" x="382" y="-30.6701" font-family="Times,serif" font-size="14.00" fill="#000000">HFST optimized&#45;lookup file</text>
<text text-anchor="middle" x="382" y="-15.6701" font-family="Times,serif" font-size="14.00" fill="#000000">(.hfstol)</text>
</g>
<!-- hfst&#45;&gt;hfstol -->
<g id="edge9" class="edge">
<title>hfst&#45;&gt;hfstol</title>
<path fill="none" stroke="#000000" d="M382,-104.637C382,-92.2976 382,-77.4761 382,-64.0972"/>
<polygon fill="#000000" stroke="#000000" points="385.5001,-63.7518 382,-53.7518 378.5001,-63.7519 385.5001,-63.7518"/>
<text text-anchor="middle" x="473.5" y="-75.5401" font-family="Times,serif" font-size="14.00" fill="#000000">hfst&#45;fst2fst in.hfst &#45;O &gt; out.hfstol</text>
</g>
<!-- bin -->
<g id="node2" class="node">
<title>bin</title>
<ellipse fill="none" stroke="#000000" cx="835" cy="-131.6102" rx="88.2768" ry="26.7407"/>
<text text-anchor="middle" x="835" y="-135.4102" font-family="Times,serif" font-size="14.00" fill="#000000">lttoolbox binary file</text>
<text text-anchor="middle" x="835" y="-120.4102" font-family="Times,serif" font-size="14.00" fill="#000000">(.bin)</text>
</g>
<!-- att -->
<g id="node4" class="node">
<title>att</title>
<ellipse fill="none" stroke="#000000" cx="581" cy="-236.3503" rx="70.922" ry="26.7407"/>
<text text-anchor="middle" x="581" y="-240.1503" font-family="Times,serif" font-size="14.00" fill="#000000">AT&amp;T text file</text>
<text text-anchor="middle" x="581" y="-225.1503" font-family="Times,serif" font-size="14.00" fill="#000000">(.att)</text>
</g>
<!-- att&#45;&gt;hfst -->
<g id="edge5" class="edge">
<title>att&#45;&gt;hfst</title>
<path fill="none" stroke="#000000" d="M576.9427,-199.4835C574.4021,-190.9766 570.3687,-182.6302 564,-176.4802 548.0811,-161.1081 497.7108,-149.4054 453.9864,-141.8117"/>
<polygon fill="#000000" stroke="#000000" points="573.5849,-200.4938 579.2898,-209.4215 580.3975,-198.8847 573.5849,-200.4938"/>
<text text-anchor="middle" x="647" y="-180.2802" font-family="Times,serif" font-size="14.00" fill="#000000">hfst&#45;fst2txt in.hfst &gt; out.att</text>
</g>
<!-- att&#45;&gt;hfst -->
<g id="edge6" class="edge">
<title>att&#45;&gt;hfst</title>
<path fill="none" stroke="#000000" d="M516.7391,-224.964C476.0889,-216.7043 428.2489,-204.6982 412,-191.4802 404.3023,-185.2184 398.4027,-176.4769 393.9579,-167.6053"/>
<polygon fill="#000000" stroke="#000000" points="397.1215,-166.1061 389.8382,-158.4116 390.7335,-168.9685 397.1215,-166.1061"/>
<text text-anchor="middle" x="486" y="-180.2802" font-family="Times,serif" font-size="14.00" fill="#000000">hfst&#45;txt2fst in.att &gt; out.hfst</text>
</g>
<!-- att&#45;&gt;bin -->
<g id="edge8" class="edge">
<title>att&#45;&gt;bin</title>
<path fill="none" stroke="#000000" d="M649.2406,-218.0802C673.5296,-210.7974 700.8369,-201.7033 725,-191.4802 749.029,-181.3139 774.7007,-167.5234 795.1953,-155.7403"/>
<polygon fill="#000000" stroke="#000000" points="647.9907,-214.7997 639.3892,-220.9855 649.9708,-221.5139 647.9907,-214.7997"/>
<text text-anchor="middle" x="826.5" y="-180.2802" font-family="Times,serif" font-size="14.00" fill="#000000">lt&#45;comp lr in.att &gt; out.bin</text>
</g>
<!-- lexc -->
<g id="node5" class="node">
<title>lexc</title>
<ellipse fill="none" stroke="#000000" cx="98" cy="-393.0904" rx="73.5782" ry="26.7407"/>
<text text-anchor="middle" x="98" y="-396.8904" font-family="Times,serif" font-size="14.00" fill="#000000">Lexc source file</text>
<text text-anchor="middle" x="98" y="-381.8904" font-family="Times,serif" font-size="14.00" fill="#000000">(.lexc)</text>
</g>
<!-- lexc&#45;&gt;hfst -->
<g id="edge2" class="edge">
<title>lexc&#45;&gt;hfst</title>
<path fill="none" stroke="#000000" d="M85.2052,-366.194C75.7979,-342.1673 67.1503,-306.9003 83,-281.2203 130.7518,-203.8519 232.0026,-165.1512 303.4099,-146.7641"/>
<polygon fill="#000000" stroke="#000000" points="304.4233,-150.1187 313.279,-144.3025 302.7292,-143.3267 304.4233,-150.1187"/>
<text text-anchor="middle" x="155.5" y="-285.0203" font-family="Times,serif" font-size="14.00" fill="#000000">hfst&#45;lexc in.lexc &gt; out.hfst</text>
</g>
<!-- lexd -->
<g id="node6" class="node">
<title>lexd</title>
<ellipse fill="none" stroke="#000000" cx="564" cy="-393.0904" rx="74.4932" ry="26.7407"/>
<text text-anchor="middle" x="564" y="-396.8904" font-family="Times,serif" font-size="14.00" fill="#000000">Lexd source file</text>
<text text-anchor="middle" x="564" y="-381.8904" font-family="Times,serif" font-size="14.00" fill="#000000">(.lexd)</text>
</g>
<!-- lexd&#45;&gt;att -->
<g id="edge1" class="edge">
<title>lexd&#45;&gt;att</title>
<path fill="none" stroke="#000000" d="M566.9224,-366.1458C569.7041,-340.4988 573.9126,-301.6961 577.0038,-273.1957"/>
<polygon fill="#000000" stroke="#000000" points="580.4886,-273.5242 578.0873,-263.2051 573.5294,-272.7693 580.4886,-273.5242"/>
<text text-anchor="middle" x="629.5" y="-318.0203" font-family="Times,serif" font-size="14.00" fill="#000000">lexd in.lexd &gt; out.att</text>
</g>
<!-- twol -->
<g id="node7" class="node">
<title>twol</title>
<ellipse fill="none" stroke="#000000" cx="255" cy="-393.0904" rx="65.1077" ry="26.7407"/>
<text text-anchor="middle" x="255" y="-396.8904" font-family="Times,serif" font-size="14.00" fill="#000000">Twol rule file</text>
<text text-anchor="middle" x="255" y="-381.8904" font-family="Times,serif" font-size="14.00" fill="#000000">(.twol)</text>
</g>
<!-- twol&#45;&gt;hfst -->
<g id="edge3" class="edge">
<title>twol&#45;&gt;hfst</title>
<path fill="none" stroke="#000000" d="M242.9433,-366.4242C234.2245,-343.1762 225.7739,-308.9339 237,-281.2203 257.3044,-231.0957 303.3512,-188.4884 338.1456,-161.7151"/>
<polygon fill="#000000" stroke="#000000" points="340.3988,-164.3996 346.2778,-155.5855 336.1854,-158.8097 340.3988,-164.3996"/>
<text text-anchor="middle" x="314" y="-285.0203" font-family="Times,serif" font-size="14.00" fill="#000000">hfst&#45;twolc in.twol &gt; out.hfst</text>
</g>
<!-- twoc -->
<g id="node8" class="node">
<title>twoc</title>
<ellipse fill="none" stroke="#000000" cx="405" cy="-393.0904" rx="66.4361" ry="26.7407"/>
<text text-anchor="middle" x="405" y="-396.8904" font-family="Times,serif" font-size="14.00" fill="#000000">Twoc rule file</text>
<text text-anchor="middle" x="405" y="-381.8904" font-family="Times,serif" font-size="14.00" fill="#000000">(.twoc)</text>
</g>
<!-- twoc&#45;&gt;hfst -->
<g id="edge4" class="edge">
<title>twoc&#45;&gt;hfst</title>
<path fill="none" stroke="#000000" d="M402.6252,-366.0923C398.4933,-319.1181 389.9751,-222.277 385.2816,-168.9176"/>
<polygon fill="#000000" stroke="#000000" points="388.7592,-168.508 384.3963,-158.8532 381.7861,-169.1214 388.7592,-168.508"/>
<text text-anchor="middle" x="474.5" y="-285.0203" font-family="Times,serif" font-size="14.00" fill="#000000">hfst&#45;twolc in.twoc &gt; out.hfst</text>
</g>
<!-- dix -->
<g id="node9" class="node">
<title>dix</title>
<ellipse fill="none" stroke="#000000" cx="743" cy="-393.0904" rx="86.9483" ry="26.7407"/>
<text text-anchor="middle" x="743" y="-396.8904" font-family="Times,serif" font-size="14.00" fill="#000000">Monodix XML file</text>
<text text-anchor="middle" x="743" y="-381.8904" font-family="Times,serif" font-size="14.00" fill="#000000">(.dix)</text>
</g>
<!-- dix&#45;&gt;bin -->
<g id="edge7" class="edge">
<title>dix&#45;&gt;bin</title>
<path fill="none" stroke="#000000" d="M809.5249,-375.6491C824.4552,-369.1002 839.0857,-360.213 850,-348.2203 903.4253,-289.5167 935.6303,-246.8975 899,-176.4802 896.1918,-171.0817 892.4035,-166.1977 888.0648,-161.8136"/>
<polygon fill="#000000" stroke="#000000" points="890.1117,-158.9494 880.3192,-154.9049 885.4522,-164.1733 890.1117,-158.9494"/>
<text text-anchor="middle" x="973.5" y="-285.0203" font-family="Times,serif" font-size="14.00" fill="#000000">lt&#45;comp lr in.dix &gt; out.bin</text>
</g>
</g>
</svg>
