<?xml version="1.0" encoding="UTF-8" standalone="no"?>
<svg
   xmlns:dc="http://purl.org/dc/elements/1.1/"
   xmlns:cc="http://creativecommons.org/ns#"
   xmlns:rdf="http://www.w3.org/1999/02/22-rdf-syntax-ns#"
   xmlns:svg="http://www.w3.org/2000/svg"
   xmlns="http://www.w3.org/2000/svg"
   xmlns:sodipodi="http://sodipodi.sourceforge.net/DTD/sodipodi-0.dtd"
   xmlns:inkscape="http://www.inkscape.org/namespaces/inkscape"
   width="701.73755pt"
   height="418.58365pt"
   viewBox="0 0 701.73755 418.58365"
   version="1.1"
   id="svg302"
   sodipodi:docname="blah.svg"
   inkscape:version="1.0.2 (e86c870879, 2021-01-15)"
   inkscape:export-filename="/home/jonathan/q/ap/apertium-doc/images/pipeline_box.png"
   inkscape:export-xdpi="200.04605"
   inkscape:export-ydpi="200.04605">
  <metadata
     id="metadata308">
    <rdf:RDF>
      <cc:Work
         rdf:about="">
        <dc:format>image/svg+xml</dc:format>
        <dc:type
           rdf:resource="http://purl.org/dc/dcmitype/StillImage" />
        <dc:title></dc:title>
      </cc:Work>
    </rdf:RDF>
  </metadata>
  <defs
     id="defs306" />
  <sodipodi:namedview
     pagecolor="#ffffff"
     bordercolor="#666666"
     borderopacity="1"
     objecttolerance="10"
     gridtolerance="10"
     guidetolerance="10"
     inkscape:pageopacity="0"
     inkscape:pageshadow="2"
     inkscape:window-width="1817"
     inkscape:window-height="774"
     id="namedview304"
     showgrid="false"
     showguides="true"
     inkscape:guide-bbox="true"
     inkscape:zoom="1.0069672"
     inkscape:cx="467.82503"
     inkscape:cy="199.60928"
     inkscape:window-x="0"
     inkscape:window-y="0"
     inkscape:window-maximized="0"
     inkscape:current-layer="svg302"
     fit-margin-top="0"
     fit-margin-left="0"
     fit-margin-right="0"
     fit-margin-bottom="0">
    <sodipodi:guide
       position="79.013628,194.76919"
       orientation="1,0"
       id="guide1310" />
  </sodipodi:namedview>
  <polygon
     fill="#ffffff"
     stroke="transparent"
     points="1000,4 -4,4 -4,-415 1000,-415 "
     id="polygon4"
     transform="matrix(0.6989418,0,0,0.9990063,2.7957672,414.58761)" />
  <g
     id="g1379">
    <polygon
       fill="none"
       stroke="#000000"
       points="154.5,-16.5 154.5,-336 274.5,-336 274.5,-16.5 "
       id="polygon8"
       transform="translate(-136.48638,402.75445)"
       style="stroke:#999999;stroke-opacity:1" />
    <text
       text-anchor="start"
       x="30.51362"
       y="81.95446"
       font-family="Times, serif"
       font-size="14px"
       id="text10">Source Language</text>
    <text
       text-anchor="start"
       x="54.013618"
       y="96.95446"
       font-family="Times, serif"
       font-size="14px"
       id="text12">Analysis</text>
  </g>
  <g
     id="g1374">
    <path
       id="polygon17"
       style="fill:none;stroke:#999999;stroke-width:0.99975;stroke-miterlimit:4;stroke-dasharray:none;stroke-opacity:1"
       d="m 516.01362,35.75445 v 339.5 h -323 v -339.5 z"
       sodipodi:nodetypes="ccccc" />
    <text
       text-anchor="start"
       x="331.51361"
       y="50.954464"
       font-family="Times, serif"
       font-size="14px"
       id="text19"
       style="stroke-width:0.99975;stroke-miterlimit:4;stroke-dasharray:none">Transfer</text>
  </g>
  <g
     id="clust3"
     class="cluster"
     transform="translate(-136.48638,402.75445)">
    <title
       id="title22">cluster_trx</title>
    <polygon
       fill="none"
       stroke="#000000"
       points="582.5,-336 582.5,-98 463.5,-98 463.5,-336 "
       id="polygon24" />
    <text
       text-anchor="start"
       x="500.5"
       y="-320.79999"
       font-family="Times, serif"
       font-size="14px"
       id="text26">Shallow</text>
    <text
       text-anchor="start"
       x="471.5"
       y="-305.79999"
       font-family="Times, serif"
       font-size="14px"
       id="text28">Structural Transfer</text>
  </g>
  <g
     id="g1370">
    <polygon
       fill="none"
       stroke="#000000"
       points="822.5,-336 822.5,-16.5 708.5,-16.5 708.5,-336 "
       id="polygon33"
       transform="translate(-136.48638,357.75445)"
       style="stroke:#999999;stroke-opacity:1" />
    <text
       text-anchor="start"
       x="582.51361"
       y="36.954464"
       font-family="Times, serif"
       font-size="14px"
       id="text35">Target Language</text>
    <text
       text-anchor="start"
       x="598.51361"
       y="51.954464"
       font-family="Times, serif"
       font-size="14px"
       id="text37">Generation</text>
  </g>
  <g
     id="node1"
     class="node"
     transform="translate(23.014667,294.16103)">
    <title
       id="title40">sltext</title>
    <text
       text-anchor="start"
       x="8"
       y="-275.79999"
       font-family="Times, serif"
       font-size="14px"
       id="text42">Source Language</text>
    <text
       text-anchor="start"
       x="43"
       y="-260.79999"
       font-family="Times, serif"
       font-size="14px"
       id="text44">Text</text>
  </g>
  <g
     id="node2"
     class="node"
     transform="translate(-144.73637,402.75445)">
    <title
       id="title47">deformat</title>
    <path
       fill="none"
       stroke="#000000"
       d="m 254,-290 c 0,0 -59,0 -59,0 -6,0 -12,6 -12,12 0,0 0,12 0,12 0,6 6,12 12,12 0,0 59,0 59,0 6,0 12,-6 12,-12 0,0 0,-12 0,-12 0,-6 -6,-12 -12,-12"
       id="path49" />
    <text
       text-anchor="start"
       x="191"
       y="-268.29999"
       font-family="Times, serif"
       font-size="14px"
       id="text51">Deformatter</text>
  </g>
  <g
     id="edge3"
     class="edge"
     transform="rotate(90,-60.49302,-132.49336)">
    <title
       id="title54">sltext-&gt;deformat</title>
    <path
       fill="none"
       stroke="#000000"
       d="m 111.31,-272 c 0,0 61.63,0 61.63,0"
       id="path56" />
    <polygon
       fill="#000000"
       stroke="#000000"
       points="172.94,-275.5 182.94,-272 172.94,-268.5 "
       id="polygon58" />
  </g>
  <g
     id="node3"
     class="node"
     transform="translate(-136.48638,402.75445)">
    <title
       id="title61">morph</title>
    <path
       fill="none"
       stroke="#000000"
       d="m 252.5,-217 c 0,0 -74,0 -74,0 -6,0 -12,6 -12,12 0,0 0,14 0,14 0,6 6,12 12,12 0,0 74,0 74,0 6,0 12,-6 12,-12 0,0 0,-14 0,-14 0,-6 -6,-12 -12,-12"
       id="path63" />
    <text
       text-anchor="start"
       x="174.5"
       y="-201.8"
       font-family="Times, serif"
       font-size="14px"
       id="text65">Morphological</text>
    <text
       text-anchor="start"
       x="191"
       y="-186.8"
       font-family="Times, serif"
       font-size="14px"
       id="text67">Analyser</text>
  </g>
  <g
     id="edge4"
     class="edge"
     transform="translate(-144.73637,402.75445)">
    <title
       id="title70">deformat-&gt;morph</title>
    <path
       fill="none"
       stroke="#000000"
       d="m 223.75,-253.71 c 0,0 0,26.6 0,26.6"
       id="path72" />
    <polygon
       fill="#000000"
       stroke="#000000"
       points="220.25,-227.11 227.25,-227.11 223.75,-217.11 "
       id="polygon74" />
  </g>
  <g
     id="node4"
     class="node"
     transform="translate(-136.48638,402.75445)">
    <title
       id="title77">disam</title>
    <path
       fill="none"
       stroke="#000000"
       d="m 254.5,-143 c 0,0 -80,0 -80,0 -6,0 -12,6 -12,12 0,0 0,14 0,14 0,6 6,12 12,12 0,0 80,0 80,0 6,0 12,-6 12,-12 0,0 0,-14 0,-14 0,-6 -6,-12 -12,-12"
       id="path79" />
    <text
       text-anchor="start"
       x="173.5"
       y="-127.8"
       font-family="Times, serif"
       font-size="14px"
       id="text81">Morphological</text>
    <text
       text-anchor="start"
       x="170.5"
       y="-112.8"
       font-family="Times, serif"
       font-size="14px"
       id="text83">Disambiguation</text>
  </g>
  <g
     id="edge5"
     class="edge"
     transform="translate(-136.48638,402.75445)">
    <title
       id="title86">morph-&gt;disam</title>
    <path
       fill="none"
       stroke="#000000"
       d="m 215.5,-178.94 c 0,0 0,25.69 0,25.69"
       id="path88" />
    <polygon
       fill="#000000"
       stroke="#000000"
       points="219,-153.25 215.5,-143.25 212,-153.25 "
       id="polygon90" />
  </g>
  <g
     id="node5"
     class="node"
     transform="translate(-136.48638,402.75445)">
    <title
       id="title93">sep1</title>
    <path
       fill="none"
       stroke="#000000"
       stroke-dasharray="5, 2"
       d="m 251.5,-60.5 c 0,0 -74,0 -74,0 -6,0 -12,6 -12,12 0,0 0,12 0,12 0,6 6,12 12,12 0,0 74,0 74,0 6,0 12,-6 12,-12 0,0 0,-12 0,-12 0,-6 -6,-12 -12,-12"
       id="path95" />
    <text
       text-anchor="start"
       x="173.5"
       y="-38.799999"
       font-family="Times, serif"
       font-size="14px"
       id="text97">Retokenisation</text>
  </g>
  <g
     id="edge6"
     class="edge"
     transform="translate(-136.48638,402.75445)">
    <title
       id="title100">disam-&gt;sep1</title>
    <path
       fill="none"
       stroke="#000000"
       d="m 214.5,-104.69 c 0,0 0,34.13 0,34.13"
       id="path102" />
    <polygon
       fill="#000000"
       stroke="#000000"
       points="218,-70.56 214.5,-60.56 211,-70.56 "
       id="polygon104" />
  </g>
  <g
     id="node6"
     class="node"
     transform="translate(-136.48638,402.75445)">
    <title
       id="title107">biltrans</title>
    <path
       fill="none"
       stroke="#000000"
       d="m 390.5,-291 c 0,0 -38,0 -38,0 -6,0 -12,6 -12,12 0,0 0,14 0,14 0,6 6,12 12,12 0,0 38,0 38,0 6,0 12,-6 12,-12 0,0 0,-14 0,-14 0,-6 -6,-12 -12,-12"
       id="path109" />
    <text
       text-anchor="start"
       x="351"
       y="-275.79999"
       font-family="Times, serif"
       font-size="14px"
       id="text111">Lexical</text>
    <text
       text-anchor="start"
       x="348.5"
       y="-260.79999"
       font-family="Times, serif"
       font-size="14px"
       id="text113">Transfer</text>
  </g>
  <g
     id="edge7"
     class="edge"
     transform="translate(-136.48638,402.75445)">
    <title
       id="title116">sep1-&gt;biltrans:w</title>
    <path
       fill="none"
       stroke="#000000"
       d="m 263.51,-42 c 20.1,0 38.74,0 38.74,0 0,0 0,-230 0,-230 0,0 28.25,0 28.25,0"
       id="path118" />
    <polygon
       fill="#000000"
       stroke="#000000"
       points="330.5,-275.5 340.5,-272 330.5,-268.5 "
       id="polygon120" />
  </g>
  <g
     id="node7"
     class="node"
     transform="translate(-136.48638,402.75445)">
    <title
       id="title123">lexsel</title>
    <path
       fill="none"
       stroke="#000000"
       d="m 393,-217 c 0,0 -43,0 -43,0 -6,0 -12,6 -12,12 0,0 0,14 0,14 0,6 6,12 12,12 0,0 43,0 43,0 6,0 12,-6 12,-12 0,0 0,-14 0,-14 0,-6 -6,-12 -12,-12"
       id="path125" />
    <text
       text-anchor="start"
       x="351"
       y="-201.8"
       font-family="Times, serif"
       font-size="14px"
       id="text127">Lexical</text>
    <text
       text-anchor="start"
       x="346"
       y="-186.8"
       font-family="Times, serif"
       font-size="14px"
       id="text129">Selection</text>
  </g>
  <g
     id="edge8"
     class="edge"
     transform="translate(-136.48638,402.75445)">
    <title
       id="title132">biltrans-&gt;lexsel</title>
    <path
       fill="none"
       stroke="#000000"
       d="m 371.5,-252.94 c 0,0 0,25.69 0,25.69"
       id="path134" />
    <polygon
       fill="#000000"
       stroke="#000000"
       points="375,-227.25 371.5,-217.25 368,-227.25 "
       id="polygon136" />
  </g>
  <g
     id="node8"
     class="node"
     transform="translate(-136.48638,402.75445)">
    <title
       id="title139">anaphora</title>
    <path
       fill="none"
       stroke="#000000"
       stroke-dasharray="5, 2"
       d="m 402,-143 c 0,0 -51,0 -51,0 -6,0 -12,6 -12,12 0,0 0,14 0,14 0,6 6,12 12,12 0,0 51,0 51,0 6,0 12,-6 12,-12 0,0 0,-14 0,-14 0,-6 -6,-12 -12,-12"
       id="path141" />
    <text
       text-anchor="start"
       x="349.5"
       y="-127.8"
       font-family="Times, serif"
       font-size="14px"
       id="text143">Anaphora</text>
    <text
       text-anchor="start"
       x="347"
       y="-112.8"
       font-family="Times, serif"
       font-size="14px"
       id="text145">Resolution</text>
  </g>
  <g
     id="edge9"
     class="edge"
     transform="translate(-136.48638,402.75445)">
    <title
       id="title148">lexsel-&gt;anaphora</title>
    <path
       fill="none"
       stroke="#000000"
       d="m 372,-178.94 c 0,0 0,25.69 0,25.69"
       id="path150" />
    <polygon
       fill="#000000"
       stroke="#000000"
       points="375.5,-153.25 372,-143.25 368.5,-153.25 "
       id="polygon152" />
  </g>
  <g
     id="node9"
     class="node"
     transform="translate(-125.98638,402.75445)">
    <title
       id="title155">t1x</title>
    <path
       fill="none"
       stroke="#000000"
       d="m 530,-290 c 0,0 -39,0 -39,0 -6,0 -12,6 -12,12 0,0 0,12 0,12 0,6 6,12 12,12 0,0 39,0 39,0 6,0 12,-6 12,-12 0,0 0,-12 0,-12 0,-6 -6,-12 -12,-12"
       id="path157" />
    <text
       text-anchor="start"
       x="487"
       y="-268.29999"
       font-family="Times, serif"
       font-size="14px"
       id="text159">Chunker</text>
  </g>
  <g
     id="edge15"
     class="edge"
     transform="translate(-136.48638,402.75445)">
    <title
       id="title162">anaphora-&gt;t1x</title>
    <path
       fill="none"
       stroke="#000000"
       d="M 437.4186,-64.209285 V -270.5 H 480.82"
       id="path164"
       sodipodi:nodetypes="ccc" />
    <polygon
       fill="#000000"
       stroke="#000000"
       points="478.82,-263 468.82,-259.5 468.82,-266.5 "
       id="polygon166"
       transform="translate(12,-7.5)" />
  </g>
  <g
     id="node12"
     class="node"
     transform="translate(-136.48638,381.75445)">
    <title
       id="title169">rtx</title>
    <path
       fill="none"
       stroke="#000000"
       d="m 546,-69 c 0,0 -47,0 -47,0 -6,0 -12,6 -12,12 0,0 0,29 0,29 0,6 6,12 12,12 0,0 47,0 47,0 6,0 12,-6 12,-12 0,0 0,-29 0,-29 0,-6 -6,-12 -12,-12"
       id="path171" />
    <text
       text-anchor="start"
       x="495"
       y="-53.799999"
       font-family="Times, serif"
       font-size="14px"
       id="text173">Recursive</text>
    <text
       text-anchor="start"
       x="495.5"
       y="-38.799999"
       font-family="Times, serif"
       font-size="14px"
       id="text175">Structural</text>
    <text
       text-anchor="start"
       x="499.5"
       y="-23.799999"
       font-family="Times, serif"
       font-size="14px"
       id="text177">Transfer</text>
  </g>
  <g
     id="edge10"
     class="edge"
     transform="translate(-136.48638,402.75445)">
    <title
       id="title180">anaphora-&gt;rtx</title>
    <path
       fill="none"
       stroke="#000000"
       d="m 376.5,-104.69 c 0,17.54 0,40.69 0,40.69 0,0 100.28,0 100.28,0"
       id="path182" />
    <polygon
       fill="#000000"
       stroke="#000000"
       points="476.78,-67.5 486.78,-64 476.78,-60.5 "
       id="polygon184" />
  </g>
  <g
     id="node10"
     class="node"
     transform="translate(-136.48638,402.75445)">
    <title
       id="title187">t2x</title>
    <path
       fill="none"
       stroke="#000000"
       d="m 540,-216 c 0,0 -51,0 -51,0 -6,0 -12,6 -12,12 0,0 0,12 0,12 0,6 6,12 12,12 0,0 51,0 51,0 6,0 12,-6 12,-12 0,0 0,-12 0,-12 0,-6 -6,-12 -12,-12"
       id="path189" />
    <text
       text-anchor="start"
       x="485"
       y="-194.3"
       font-family="Times, serif"
       font-size="14px"
       id="text191">Interchunk</text>
  </g>
  <g
     id="edge1"
     class="edge"
     transform="translate(-136.48638,402.75445)">
    <title
       id="title194">t1x-&gt;t2x</title>
    <path
       fill="none"
       stroke="#000000"
       d="m 521,-253.71 c 0,0 0,27.63 0,27.63"
       id="path196" />
    <polygon
       fill="#000000"
       stroke="#000000"
       points="524.5,-226.08 521,-216.08 517.5,-226.08 "
       id="polygon198" />
  </g>
  <g
     id="edge19"
     class="edge"
     transform="translate(-136.48638,402.75445)">
    <title
       id="title201">t2x-&gt;t2x</title>
    <path
       fill="none"
       stroke="#000000"
       stroke-dasharray="5, 2"
       d="m 500,-226.07 c -4.1835,-17.71585 -26.34768,-7.71981 -31.1065,5.96664 -7.01527,20.17606 -1.91177,47.12955 16.41722,47.35215 4.38417,0.0532 14.97505,0.52489 15.93192,-6.83738"
       id="path203"
       sodipodi:nodetypes="cssc" />
    <polygon
       fill="#000000"
       stroke="#000000"
       points="503.5,-226.07 500,-216.07 496.5,-226.07 "
       id="polygon205" />
  </g>
  <g
     id="node11"
     class="node"
     transform="translate(-136.48638,402.75445)">
    <title
       id="title208">t3x</title>
    <path
       fill="none"
       stroke="#000000"
       d="m 547,-142 c 0,0 -49,0 -49,0 -6,0 -12,6 -12,12 0,0 0,12 0,12 0,6 6,12 12,12 0,0 49,0 49,0 6,0 12,-6 12,-12 0,0 0,-12 0,-12 0,-6 -6,-12 -12,-12"
       id="path210" />
    <text
       text-anchor="start"
       x="494"
       y="-120.3"
       font-family="Times, serif"
       font-size="14px"
       id="text212">Postchunk</text>
  </g>
  <g
     id="edge2"
     class="edge"
     transform="translate(-136.48638,402.75445)">
    <title
       id="title215">t2x-&gt;t3x</title>
    <path
       fill="none"
       stroke="#000000"
       d="m 519,-179.71 c 0,0 0,27.63 0,27.63"
       id="path217" />
    <polygon
       fill="#000000"
       stroke="#000000"
       points="522.5,-152.08 519,-142.08 515.5,-152.08 "
       id="polygon219" />
  </g>
  <g
     id="node13"
     class="node"
     transform="translate(-136.48638,357.75445)">
    <title
       id="title222">sep2</title>
    <path
       fill="none"
       stroke="#000000"
       stroke-dasharray="5, 2"
       d="m 802.5,-290 c 0,0 -74,0 -74,0 -6,0 -12,6 -12,12 0,0 0,12 0,12 0,6 6,12 12,12 0,0 74,0 74,0 6,0 12,-6 12,-12 0,0 0,-12 0,-12 0,-6 -6,-12 -12,-12"
       id="path224" />
    <text
       text-anchor="start"
       x="724.5"
       y="-268.29999"
       font-family="Times, serif"
       font-size="14px"
       id="text226">Retokenisation</text>
  </g>
  <path
     fill="none"
     stroke="#000000"
     d="m 423.01424,278.29285 h 78.34857"
     id="path231"
     sodipodi:nodetypes="cc" />
  <g
     id="g1324"
     transform="translate(-140.48638,-12.24554)">
    <path
       fill="none"
       stroke="#000000"
       d="m 562.02,351 h 79.73 V 95 h 68.72"
       id="path238"
       sodipodi:nodetypes="cccc" />
    <polygon
       fill="#000000"
       stroke="#000000"
       points="716.47,-278 706.47,-274.5 706.47,-281.5 "
       id="polygon240"
       transform="translate(4,373)" />
  </g>
  <g
     id="node14"
     class="node"
     transform="translate(-136.48638,357.75445)">
    <title
       id="title243">gener</title>
    <path
       fill="none"
       stroke="#000000"
       d="m 802.5,-217 c 0,0 -74,0 -74,0 -6,0 -12,6 -12,12 0,0 0,14 0,14 0,6 6,12 12,12 0,0 74,0 74,0 6,0 12,-6 12,-12 0,0 0,-14 0,-14 0,-6 -6,-12 -12,-12"
       id="path245" />
    <text
       text-anchor="start"
       x="724.5"
       y="-201.8"
       font-family="Times, serif"
       font-size="14px"
       id="text247">Morphological</text>
    <text
       text-anchor="start"
       x="738"
       y="-186.8"
       font-family="Times, serif"
       font-size="14px"
       id="text249">Generator</text>
  </g>
  <g
     id="edge11"
     class="edge"
     transform="translate(-136.48638,357.75445)">
    <title
       id="title252">sep2-&gt;gener</title>
    <path
       fill="none"
       stroke="#000000"
       d="m 765.5,-253.71 c 0,0 0,26.6 0,26.6"
       id="path254" />
    <polygon
       fill="#000000"
       stroke="#000000"
       points="769,-227.11 765.5,-217.11 762,-227.11 "
       id="polygon256" />
  </g>
  <g
     id="node15"
     class="node"
     transform="translate(-136.48638,357.75445)">
    <title
       id="title259">postgen</title>
    <path
       fill="none"
       stroke="#000000"
       stroke-dasharray="5, 2"
       d="m 802.5,-142 c 0,0 -74,0 -74,0 -6,0 -12,6 -12,12 0,0 0,12 0,12 0,6 6,12 12,12 0,0 74,0 74,0 6,0 12,-6 12,-12 0,0 0,-12 0,-12 0,-6 -6,-12 -12,-12"
       id="path261" />
    <text
       text-anchor="start"
       x="724.5"
       y="-120.3"
       font-family="Times, serif"
       font-size="14px"
       id="text263">Post-Generator</text>
  </g>
  <g
     id="edge12"
     class="edge"
     transform="translate(-136.48638,357.75445)">
    <title
       id="title266">gener-&gt;postgen</title>
    <path
       fill="none"
       stroke="#000000"
       d="m 765.5,-178.94 c 0,0 0,26.71 0,26.71"
       id="path268" />
    <polygon
       fill="#000000"
       stroke="#000000"
       points="769,-152.23 765.5,-142.23 762,-152.23 "
       id="polygon270" />
  </g>
  <g
     id="node16"
     class="node"
     transform="translate(-136.48638,357.75445)">
    <title
       id="title273">reformat</title>
    <path
       fill="none"
       stroke="#000000"
       d="m 795,-60.5 c 0,0 -59,0 -59,0 -6,0 -12,6 -12,12 0,0 0,12 0,12 0,6 6,12 12,12 0,0 59,0 59,0 6,0 12,-6 12,-12 0,0 0,-12 0,-12 0,-6 -6,-12 -12,-12"
       id="path275" />
    <text
       text-anchor="start"
       x="732"
       y="-38.799999"
       font-family="Times, serif"
       font-size="14px"
       id="text277">Reformatter</text>
  </g>
  <g
     id="edge13"
     class="edge"
     transform="translate(-136.48638,357.75445)">
    <title
       id="title280">postgen-&gt;reformat</title>
    <path
       fill="none"
       stroke="#000000"
       d="m 765.5,-105.91 c 0,0 0,35.37 0,35.37"
       id="path282" />
    <polygon
       fill="#000000"
       stroke="#000000"
       points="769,-70.54 765.5,-60.54 762,-70.54 "
       id="polygon284" />
  </g>
  <g
     id="node17"
     class="node"
     transform="translate(-312.09659,667.96326)">
    <title
       id="title287">tltext</title>
    <text
       text-anchor="start"
       x="895"
       y="-275.79999"
       font-family="Times, serif"
       font-size="14px"
       id="text289">Target Language</text>
    <text
       text-anchor="start"
       x="929"
       y="-260.79999"
       font-family="Times, serif"
       font-size="14px"
       id="text291">Text</text>
  </g>
  <g
     id="edge13-3"
     class="edge"
     transform="translate(-136.48637,438.75445)">
    <title
       id="title280-6">postgen-&gt;reformat</title>
    <path
       fill="none"
       stroke="#000000"
       d="m 765.5,-105.91 c 0,0 0,35.37 0,35.37"
       id="path282-7" />
    <polygon
       fill="#000000"
       stroke="#000000"
       points="769,-70.54 765.5,-60.54 762,-70.54 "
       id="polygon284-5" />
  </g>
</svg>
