<?xml version="1.0" encoding="UTF-8" standalone="no"?>
<svg
   xmlns:dc="http://purl.org/dc/elements/1.1/"
   xmlns:cc="http://creativecommons.org/ns#"
   xmlns:rdf="http://www.w3.org/1999/02/22-rdf-syntax-ns#"
   xmlns:svg="http://www.w3.org/2000/svg"
   xmlns="http://www.w3.org/2000/svg"
   xmlns:sodipodi="http://sodipodi.sourceforge.net/DTD/sodipodi-0.dtd"
   xmlns:inkscape="http://www.inkscape.org/namespaces/inkscape"
   width="667.97052pt"
   height="389.4707pt"
   viewBox="0 0 667.97052 389.4707"
   version="1.1"
   id="svg302"
   sodipodi:docname="pipeline_box.svg"
   inkscape:version="1.0.2 (e86c870879, 2021-01-15)"
   inkscape:export-filename="/home/jonathan/q/ap/apertium-doc/images/pipeline_box.png"
   inkscape:export-xdpi="200.04605"
   inkscape:export-ydpi="200.04605">
  <metadata
     id="metadata308">
    <rdf:RDF>
      <cc:Work
         rdf:about="">
        <dc:format>image/svg+xml</dc:format>
        <dc:type
           rdf:resource="http://purl.org/dc/dcmitype/StillImage" />
        <dc:title></dc:title>
      </cc:Work>
    </rdf:RDF>
  </metadata>
  <defs
     id="defs306" />
  <sodipodi:namedview
     pagecolor="#ffffff"
     bordercolor="#666666"
     borderopacity="1"
     objecttolerance="10"
     gridtolerance="10"
     guidetolerance="10"
     inkscape:pageopacity="0"
     inkscape:pageshadow="2"
     inkscape:window-width="1664"
     inkscape:window-height="753"
     id="namedview304"
     showgrid="false"
     showguides="true"
     inkscape:guide-bbox="true"
     inkscape:zoom="1.0417985"
     inkscape:cx="445.3137"
     inkscape:cy="259.64714"
     inkscape:window-x="73"
     inkscape:window-y="54"
     inkscape:window-maximized="0"
     inkscape:current-layer="svg302"
     fit-margin-top="0"
     fit-margin-left="0"
     fit-margin-right="0"
     fit-margin-bottom="0"
     inkscape:document-rotation="0">
    <sodipodi:guide
       position="70.22842,168.47038"
       orientation="1,0"
       id="guide1310" />
    <sodipodi:guide
       position="231.16991,105.76782"
       orientation="1,0"
       id="guide1503" />
    <sodipodi:guide
       position="377.77622,83.153786"
       orientation="1,0"
       id="guide1565" />
  </sodipodi:namedview>
  <polygon
     fill="#ffffff"
     stroke="transparent"
     points="-4,-415 1000,-415 1000,4 -4,4 "
     id="polygon4"
     transform="matrix(0.66530931,0,0,0.92952439,2.6612372,385.75262)"
     inkscape:export-xdpi="200.04605"
     inkscape:export-ydpi="200.04605" />
  <g
     id="edge3-4"
     class="edge"
     transform="rotate(90,80.134053,250.09437)">
    <title
       id="title54-3">sltext-&gt;deformat</title>
    <path
       fill="none"
       stroke="#000000"
       d="m 148.81,-272 h 24.13"
       id="path56-0"
       sodipodi:nodetypes="cc" />
    <polygon
       fill="#000000"
       stroke="#000000"
       points="172.94,-268.5 172.94,-275.5 182.94,-272 "
       id="polygon58-3" />
  </g>
  <g
     id="g1450"
     transform="translate(-8.7852071,-2.8141362)">
    <path
       id="polygon8"
       style="fill:none;stroke:#999999;stroke-opacity:1"
       transform="translate(-136.48638,402.75445)"
       d="m 274.5,-270 v 253.5 h -120 V -270 Z"
       sodipodi:nodetypes="ccccc" />
    <text
       text-anchor="start"
       x="30.51362"
       y="365.45447"
       font-family="Times, serif"
       font-size="14px"
       id="text10">Source Language</text>
    <text
       text-anchor="start"
       x="54.013618"
       y="380.45447"
       font-family="Times, serif"
       font-size="14px"
       id="text12">Analysis</text>
  </g>
  <path
     id="polygon17"
     style="fill:none;stroke:#999999;stroke-width:0.99975;stroke-miterlimit:4;stroke-dasharray:none;stroke-opacity:1"
     d="M 487.72841,32.940314 V 372.44031 h -303.5 V 32.940314 Z"
     sodipodi:nodetypes="ccccc" />
  <text
     text-anchor="start"
     x="312.89252"
     y="48.140327"
     font-family="Times, serif"
     font-size="14px"
     id="text19"
     style="stroke-width:0.99975;stroke-miterlimit:4;stroke-dasharray:none">Transfer</text>
  <g
     id="clust3"
     class="cluster"
     transform="translate(-145.27159,399.94032)">
    <title
       id="title22">cluster_trx</title>
    <polygon
       fill="none"
       stroke="#000000"
       points="582.5,-336 582.5,-98 463.5,-98 463.5,-336 "
       id="polygon24"
       style="stroke:#999999;stroke-opacity:1" />
    <text
       text-anchor="start"
       x="500.5"
       y="-320.79999"
       font-family="Times, serif"
       font-size="14px"
       id="text26">Shallow</text>
    <text
       text-anchor="start"
       x="471.5"
       y="-305.79999"
       font-family="Times, serif"
       font-size="14px"
       id="text28">Structural Transfer</text>
  </g>
  <g
     id="g1370"
     transform="translate(-26.785207,-14.814136)">
    <path
       id="polygon33"
       style="fill:none;stroke:#999999;stroke-opacity:1"
       transform="translate(-136.48638,357.75445)"
       d="m 822.5,-336 v 239.999999 h -114 V -336 Z"
       sodipodi:nodetypes="ccccc" />
    <g
       aria-label="Target Language"
       id="text35"
       style="font-size:14px;font-family:Times, serif;text-anchor:start">
      <path
         d="m 588.84161,36.688464 c -1.148,-0.056 -1.33,-0.224 -1.344,-1.26 v -7.154 h 0.756 c 1.624,0.028 1.918,0.266 2.226,1.792 h 0.336 l -0.084,-2.38 h -7.896 l -0.084,2.38 h 0.336 c 0.322,-1.526 0.616,-1.764 2.226,-1.792 h 0.756 v 7 c -0.014,1.204 -0.14,1.344 -1.316,1.414 v 0.266 h 4.088 z"
         style="font-size:14px;font-family:Times, serif;text-anchor:start"
         id="path1453" />
      <path
         d="m 596.17756,36.030464 c -0.238,0.196 -0.406,0.266 -0.616,0.266 -0.322,0 -0.42,-0.196 -0.42,-0.812 v -2.73 c 0,-0.728 -0.07,-1.134 -0.28,-1.47 -0.308,-0.504 -0.91,-0.77 -1.736,-0.77 -1.316,0 -2.352,0.686 -2.352,1.568 0,0.322 0.266,0.602 0.602,0.602 0.336,0 0.63,-0.28 0.63,-0.588 0,-0.056 -0.014,-0.126 -0.028,-0.224 -0.028,-0.126 -0.042,-0.238 -0.042,-0.336 0,-0.378 0.448,-0.686 1.008,-0.686 0.686,0 1.064,0.406 1.064,1.162 v 0.854 c -2.142,0.854 -2.394,0.98 -2.996,1.512 -0.308,0.28 -0.504,0.756 -0.504,1.218 0,0.882 0.616,1.498 1.47,1.498 0.616,0 1.19,-0.294 2.044,-1.022 0.07,0.742 0.322,1.022 0.896,1.022 0.476,0 0.77,-0.168 1.26,-0.7 z m -2.17,-0.798 c 0,0.42 -0.07,0.574 -0.364,0.742 -0.35,0.196 -0.728,0.308 -1.022,0.308 -0.49,0 -0.882,-0.476 -0.882,-1.078 v -0.056 c 0.014,-0.84 0.63,-1.372 2.268,-1.946 z"
         style="font-size:14px;font-family:Times, serif;text-anchor:start"
         id="path1455" />
      <path
         d="m 596.27554,36.954464 h 3.36 v -0.21 c -0.938,-0.028 -1.162,-0.224 -1.19,-1.05 v -3.15 c 0,-0.448 0.588,-1.148 0.98,-1.148 0.084,0 0.21,0.07 0.364,0.21 0.21,0.21 0.378,0.28 0.56,0.28 0.336,0 0.546,-0.238 0.546,-0.63 0,-0.462 -0.294,-0.742 -0.77,-0.742 -0.588,0 -0.98,0.308 -1.68,1.316 v -1.288 l -0.07,-0.028 c -0.784,0.308 -1.288,0.504 -2.072,0.756 v 0.224 c 0.196,-0.042 0.322,-0.056 0.49,-0.056 0.35,0 0.476,0.224 0.476,0.84 v 3.5 c -0.028,0.728 -0.112,0.812 -0.994,0.966 z"
         style="font-size:14px;font-family:Times, serif;text-anchor:start"
         id="path1457" />
      <path
         d="m 607.26551,31.522464 v -0.546 h -1.078 c -0.294,0 -0.49,-0.042 -0.77,-0.14 l -0.308,-0.112 c -0.364,-0.14 -0.756,-0.21 -1.12,-0.21 -1.302,0 -2.338,0.994 -2.338,2.282 0,0.882 0.364,1.414 1.302,1.876 l -0.364,0.336 c -0.294,0.28 -0.462,0.434 -0.504,0.49 -0.294,0.308 -0.378,0.462 -0.378,0.7 0,0.308 0.154,0.462 0.742,0.742 -1.008,0.728 -1.372,1.19 -1.372,1.708 0,0.742 1.078,1.358 2.422,1.358 1.05,0 2.142,-0.364 2.87,-0.952 0.532,-0.434 0.77,-0.882 0.77,-1.414 0,-0.868 -0.658,-1.442 -1.694,-1.498 l -1.806,-0.084 c -0.756,-0.028 -1.092,-0.154 -1.092,-0.378 0,-0.28 0.462,-0.77 0.84,-0.882 0.504,0.042 0.77,0.07 0.798,0.07 0.518,0 1.078,-0.21 1.512,-0.588 0.462,-0.392 0.672,-0.882 0.672,-1.582 0,-0.406 -0.07,-0.728 -0.266,-1.176 z m -4.522,5.46 c 0.476,0.098 1.568,0.182 2.282,0.182 1.26,0 1.722,0.182 1.722,0.686 0,0.812 -1.064,1.358 -2.646,1.358 -1.246,0 -2.044,-0.406 -2.044,-1.022 0,-0.322 0.126,-0.532 0.686,-1.204 z m 0.07,-4.76 c 0,-0.826 0.392,-1.316 1.036,-1.316 0.434,0 0.798,0.238 1.022,0.658 0.266,0.49 0.42,1.12 0.42,1.68 0,0.784 -0.392,1.274 -1.036,1.274 -0.868,0 -1.442,-0.91 -1.442,-2.254 z"
         style="font-size:14px;font-family:Times, serif;text-anchor:start"
         id="path1459" />
      <path
         d="m 612.97747,34.658464 c -0.672,1.064 -1.274,1.47 -2.17,1.47 -0.798,0 -1.4,-0.406 -1.806,-1.204 -0.252,-0.532 -0.35,-0.98 -0.378,-1.848 h 4.312 c -0.112,-0.91 -0.252,-1.316 -0.602,-1.764 -0.42,-0.504 -1.064,-0.798 -1.792,-0.798 -0.7,0 -1.358,0.252 -1.89,0.728 -0.658,0.574 -1.036,1.568 -1.036,2.716 0,1.932 1.008,3.136 2.618,3.136 1.33,0 2.38,-0.826 2.968,-2.338 z m -4.326,-2.03 c 0.154,-1.092 0.63,-1.61 1.484,-1.61 0.854,0 1.19,0.392 1.372,1.61 z"
         style="font-size:14px;font-family:Times, serif;text-anchor:start"
         id="path1461" />
      <path
         d="m 616.92544,30.654464 h -1.414 v -1.624 c 0,-0.14 -0.028,-0.182 -0.098,-0.182 -0.812,1.176 -1.232,1.652 -1.638,1.89 -0.154,0.098 -0.238,0.182 -0.238,0.266 0,0.042 0.014,0.07 0.056,0.098 h 0.742 v 4.214 c 0,1.176 0.42,1.778 1.246,1.778 0.686,0 1.218,-0.336 1.68,-1.064 l -0.182,-0.154 c -0.308,0.364 -0.532,0.49 -0.84,0.49 -0.518,0 -0.728,-0.378 -0.728,-1.26 v -4.004 h 1.414 z"
         style="font-size:14px;font-family:Times, serif;text-anchor:start"
         id="path1463" />
      <path
         d="m 624.86341,27.686464 h -3.948 v 0.266 c 1.022,0.07 1.19,0.252 1.218,1.26 v 6.216 c -0.028,1.008 -0.21,1.204 -1.218,1.26 v 0.266 h 7.532 l 0.672,-2.436 h -0.35 c -0.658,1.47 -1.26,1.834 -3.066,1.89 h -0.938 c -1.078,-0.028 -1.19,-0.07 -1.204,-0.574 v -6.622 c 0.028,-1.022 0.21,-1.204 1.302,-1.26 z"
         style="font-size:14px;font-family:Times, serif;text-anchor:start"
         id="path1465" />
      <path
         d="m 635.47536,36.030464 c -0.238,0.196 -0.406,0.266 -0.616,0.266 -0.322,0 -0.42,-0.196 -0.42,-0.812 v -2.73 c 0,-0.728 -0.07,-1.134 -0.28,-1.47 -0.308,-0.504 -0.91,-0.77 -1.736,-0.77 -1.316,0 -2.352,0.686 -2.352,1.568 0,0.322 0.266,0.602 0.602,0.602 0.336,0 0.63,-0.28 0.63,-0.588 0,-0.056 -0.014,-0.126 -0.028,-0.224 -0.028,-0.126 -0.042,-0.238 -0.042,-0.336 0,-0.378 0.448,-0.686 1.008,-0.686 0.686,0 1.064,0.406 1.064,1.162 v 0.854 c -2.142,0.854 -2.394,0.98 -2.996,1.512 -0.308,0.28 -0.504,0.756 -0.504,1.218 0,0.882 0.616,1.498 1.47,1.498 0.616,0 1.19,-0.294 2.044,-1.022 0.07,0.742 0.322,1.022 0.896,1.022 0.476,0 0.77,-0.168 1.26,-0.7 z m -2.17,-0.798 c 0,0.42 -0.07,0.574 -0.364,0.742 -0.35,0.196 -0.728,0.308 -1.022,0.308 -0.49,0 -0.882,-0.476 -0.882,-1.078 v -0.056 c 0.014,-0.84 0.63,-1.372 2.268,-1.946 z"
         style="font-size:14px;font-family:Times, serif;text-anchor:start"
         id="path1467" />
      <path
         d="m 635.75534,36.954464 h 2.968 v -0.21 c -0.7,-0.042 -0.924,-0.224 -0.924,-0.728 v -3.934 c 0.672,-0.63 0.98,-0.798 1.442,-0.798 0.686,0 1.022,0.434 1.022,1.358 v 2.926 c -0.028,0.91 -0.196,1.134 -0.882,1.176 v 0.21 h 2.912 v -0.21 c -0.686,-0.07 -0.84,-0.238 -0.854,-0.924 v -3.206 c 0,-1.316 -0.616,-2.1 -1.652,-2.1 -0.644,0 -1.078,0.238 -2.03,1.134 v -1.106 l -0.098,-0.028 c -0.728,0.266 -1.204,0.42 -1.932,0.63 v 0.238 c 0.098,-0.042 0.224,-0.056 0.378,-0.056 0.392,0 0.518,0.21 0.518,0.896 v 3.472 c -0.014,0.826 -0.168,1.008 -0.868,1.05 z"
         style="font-size:14px;font-family:Times, serif;text-anchor:start"
         id="path1469" />
      <path
         d="m 648.7193,31.522464 v -0.546 h -1.078 c -0.294,0 -0.49,-0.042 -0.77,-0.14 l -0.308,-0.112 c -0.364,-0.14 -0.756,-0.21 -1.12,-0.21 -1.302,0 -2.338,0.994 -2.338,2.282 0,0.882 0.364,1.414 1.302,1.876 l -0.364,0.336 c -0.294,0.28 -0.462,0.434 -0.504,0.49 -0.294,0.308 -0.378,0.462 -0.378,0.7 0,0.308 0.154,0.462 0.742,0.742 -1.008,0.728 -1.372,1.19 -1.372,1.708 0,0.742 1.078,1.358 2.422,1.358 1.05,0 2.142,-0.364 2.87,-0.952 0.532,-0.434 0.77,-0.882 0.77,-1.414 0,-0.868 -0.658,-1.442 -1.694,-1.498 l -1.806,-0.084 c -0.756,-0.028 -1.092,-0.154 -1.092,-0.378 0,-0.28 0.462,-0.77 0.84,-0.882 0.504,0.042 0.77,0.07 0.798,0.07 0.518,0 1.078,-0.21 1.512,-0.588 0.462,-0.392 0.672,-0.882 0.672,-1.582 0,-0.406 -0.07,-0.728 -0.266,-1.176 z m -4.522,5.46 c 0.476,0.098 1.568,0.182 2.282,0.182 1.26,0 1.722,0.182 1.722,0.686 0,0.812 -1.064,1.358 -2.646,1.358 -1.246,0 -2.044,-0.406 -2.044,-1.022 0,-0.322 0.126,-0.532 0.686,-1.204 z m 0.07,-4.76 c 0,-0.826 0.392,-1.316 1.036,-1.316 0.434,0 0.798,0.238 1.022,0.658 0.266,0.49 0.42,1.12 0.42,1.68 0,0.784 -0.392,1.274 -1.036,1.274 -0.868,0 -1.442,-0.91 -1.442,-2.254 z"
         style="font-size:14px;font-family:Times, serif;text-anchor:start"
         id="path1471" />
      <path
         d="m 655.84527,36.254464 h -0.07 c -0.686,-0.028 -0.784,-0.14 -0.798,-0.798 v -4.802 h -2.212 v 0.238 c 0.868,0.042 1.036,0.182 1.036,0.882 v 3.29 c 0,0.392 -0.07,0.588 -0.266,0.742 -0.378,0.308 -0.812,0.476 -1.232,0.476 -0.546,0 -0.994,-0.476 -0.994,-1.064 v -4.564 h -2.044 v 0.196 c 0.658,0.028 0.854,0.224 0.868,0.896 v 3.528 c 0,1.106 0.672,1.82 1.694,1.82 0.518,0 1.064,-0.224 1.442,-0.602 l 0.602,-0.602 v 1.162 l 0.056,0.028 c 0.7,-0.28 1.204,-0.434 1.918,-0.63 z"
         style="font-size:14px;font-family:Times, serif;text-anchor:start"
         id="path1473" />
      <path
         d="m 662.32725,36.030464 c -0.238,0.196 -0.406,0.266 -0.616,0.266 -0.322,0 -0.42,-0.196 -0.42,-0.812 v -2.73 c 0,-0.728 -0.07,-1.134 -0.28,-1.47 -0.308,-0.504 -0.91,-0.77 -1.736,-0.77 -1.316,0 -2.352,0.686 -2.352,1.568 0,0.322 0.266,0.602 0.602,0.602 0.336,0 0.63,-0.28 0.63,-0.588 0,-0.056 -0.014,-0.126 -0.028,-0.224 -0.028,-0.126 -0.042,-0.238 -0.042,-0.336 0,-0.378 0.448,-0.686 1.008,-0.686 0.686,0 1.064,0.406 1.064,1.162 v 0.854 c -2.142,0.854 -2.394,0.98 -2.996,1.512 -0.308,0.28 -0.504,0.756 -0.504,1.218 0,0.882 0.616,1.498 1.47,1.498 0.616,0 1.19,-0.294 2.044,-1.022 0.07,0.742 0.322,1.022 0.896,1.022 0.476,0 0.77,-0.168 1.26,-0.7 z m -2.17,-0.798 c 0,0.42 -0.07,0.574 -0.364,0.742 -0.35,0.196 -0.728,0.308 -1.022,0.308 -0.49,0 -0.882,-0.476 -0.882,-1.078 v -0.056 c 0.014,-0.84 0.63,-1.372 2.268,-1.946 z"
         style="font-size:14px;font-family:Times, serif;text-anchor:start"
         id="path1475" />
      <path
         d="m 668.82321,31.522464 v -0.546 h -1.078 c -0.294,0 -0.49,-0.042 -0.77,-0.14 l -0.308,-0.112 c -0.364,-0.14 -0.756,-0.21 -1.12,-0.21 -1.302,0 -2.338,0.994 -2.338,2.282 0,0.882 0.364,1.414 1.302,1.876 l -0.364,0.336 c -0.294,0.28 -0.462,0.434 -0.504,0.49 -0.294,0.308 -0.378,0.462 -0.378,0.7 0,0.308 0.154,0.462 0.742,0.742 -1.008,0.728 -1.372,1.19 -1.372,1.708 0,0.742 1.078,1.358 2.422,1.358 1.05,0 2.142,-0.364 2.87,-0.952 0.532,-0.434 0.77,-0.882 0.77,-1.414 0,-0.868 -0.658,-1.442 -1.694,-1.498 l -1.806,-0.084 c -0.756,-0.028 -1.092,-0.154 -1.092,-0.378 0,-0.28 0.462,-0.77 0.84,-0.882 0.504,0.042 0.77,0.07 0.798,0.07 0.518,0 1.078,-0.21 1.512,-0.588 0.462,-0.392 0.672,-0.882 0.672,-1.582 0,-0.406 -0.07,-0.728 -0.266,-1.176 z m -4.522,5.46 c 0.476,0.098 1.568,0.182 2.282,0.182 1.26,0 1.722,0.182 1.722,0.686 0,0.812 -1.064,1.358 -2.646,1.358 -1.246,0 -2.044,-0.406 -2.044,-1.022 0,-0.322 0.126,-0.532 0.686,-1.204 z m 0.07,-4.76 c 0,-0.826 0.392,-1.316 1.036,-1.316 0.434,0 0.798,0.238 1.022,0.658 0.266,0.49 0.42,1.12 0.42,1.68 0,0.784 -0.392,1.274 -1.036,1.274 -0.868,0 -1.442,-0.91 -1.442,-2.254 z"
         style="font-size:14px;font-family:Times, serif;text-anchor:start"
         id="path1477" />
      <path
         d="m 674.53517,34.658464 c -0.672,1.064 -1.274,1.47 -2.17,1.47 -0.798,0 -1.4,-0.406 -1.806,-1.204 -0.252,-0.532 -0.35,-0.98 -0.378,-1.848 h 4.312 c -0.112,-0.91 -0.252,-1.316 -0.602,-1.764 -0.42,-0.504 -1.064,-0.798 -1.792,-0.798 -0.7,0 -1.358,0.252 -1.89,0.728 -0.658,0.574 -1.036,1.568 -1.036,2.716 0,1.932 1.008,3.136 2.618,3.136 1.33,0 2.38,-0.826 2.968,-2.338 z m -4.326,-2.03 c 0.154,-1.092 0.63,-1.61 1.484,-1.61 0.854,0 1.19,0.392 1.372,1.61 z"
         style="font-size:14px;font-family:Times, serif;text-anchor:start"
         id="path1479" />
    </g>
    <g
       aria-label="Generation"
       id="text37"
       style="font-size:14px;font-family:Times, serif;text-anchor:start">
      <path
         d="m 608.43961,46.998464 h -3.57 v 0.252 c 1.092,0.07 1.204,0.182 1.232,1.246 v 2.268 c 0,0.448 -0.84,0.826 -1.862,0.826 -2.282,0 -3.682,-1.596 -3.682,-4.2 0,-1.316 0.392,-2.59 1.008,-3.276 0.602,-0.686 1.484,-1.064 2.436,-1.064 0.784,0 1.484,0.266 2.016,0.77 0.42,0.406 0.644,0.77 0.994,1.624 h 0.322 l -0.112,-2.954 h -0.308 c -0.084,0.28 -0.336,0.462 -0.63,0.462 -0.14,0 -0.364,-0.042 -0.616,-0.14 -0.63,-0.21 -1.288,-0.322 -1.918,-0.322 -2.786,0 -4.788,2.058 -4.788,4.914 0,1.372 0.378,2.422 1.162,3.248 0.924,0.966 2.282,1.498 3.822,1.498 1.218,0 2.954,-0.49 3.514,-0.98 v -2.842 c 0.028,-0.854 0.182,-1.022 0.98,-1.078 z"
         style="font-size:14px;font-family:Times, serif;text-anchor:start"
         id="path1482" />
      <path
         d="m 614.36157,49.658464 c -0.672,1.064 -1.274,1.47 -2.17,1.47 -0.798,0 -1.4,-0.406 -1.806,-1.204 -0.252,-0.532 -0.35,-0.98 -0.378,-1.848 h 4.312 c -0.112,-0.91 -0.252,-1.316 -0.602,-1.764 -0.42,-0.504 -1.064,-0.798 -1.792,-0.798 -0.7,0 -1.358,0.252 -1.89,0.728 -0.658,0.574 -1.036,1.568 -1.036,2.716 0,1.932 1.008,3.136 2.618,3.136 1.33,0 2.38,-0.826 2.968,-2.338 z m -4.326,-2.03 c 0.154,-1.092 0.63,-1.61 1.484,-1.61 0.854,0 1.19,0.392 1.372,1.61 z"
         style="font-size:14px;font-family:Times, serif;text-anchor:start"
         id="path1484" />
      <path
         d="m 615.11755,51.954464 h 2.968 v -0.21 c -0.7,-0.042 -0.924,-0.224 -0.924,-0.728 v -3.934 c 0.672,-0.63 0.98,-0.798 1.442,-0.798 0.686,0 1.022,0.434 1.022,1.358 v 2.926 c -0.028,0.91 -0.196,1.134 -0.882,1.176 v 0.21 h 2.912 v -0.21 c -0.686,-0.07 -0.84,-0.238 -0.854,-0.924 v -3.206 c 0,-1.316 -0.616,-2.1 -1.652,-2.1 -0.644,0 -1.078,0.238 -2.03,1.134 v -1.106 l -0.098,-0.028 c -0.728,0.266 -1.204,0.42 -1.932,0.63 v 0.238 c 0.098,-0.042 0.224,-0.056 0.378,-0.056 0.392,0 0.518,0.21 0.518,0.896 v 3.472 c -0.014,0.826 -0.168,1.008 -0.868,1.05 z"
         style="font-size:14px;font-family:Times, serif;text-anchor:start"
         id="path1486" />
      <path
         d="m 627.57752,49.658464 c -0.672,1.064 -1.274,1.47 -2.17,1.47 -0.798,0 -1.4,-0.406 -1.806,-1.204 -0.252,-0.532 -0.35,-0.98 -0.378,-1.848 h 4.312 c -0.112,-0.91 -0.252,-1.316 -0.602,-1.764 -0.42,-0.504 -1.064,-0.798 -1.792,-0.798 -0.7,0 -1.358,0.252 -1.89,0.728 -0.658,0.574 -1.036,1.568 -1.036,2.716 0,1.932 1.008,3.136 2.618,3.136 1.33,0 2.38,-0.826 2.968,-2.338 z m -4.326,-2.03 c 0.154,-1.092 0.63,-1.61 1.484,-1.61 0.854,0 1.19,0.392 1.372,1.61 z"
         style="font-size:14px;font-family:Times, serif;text-anchor:start"
         id="path1488" />
      <path
         d="m 628.1515,51.954464 h 3.36 v -0.21 c -0.938,-0.028 -1.162,-0.224 -1.19,-1.05 v -3.15 c 0,-0.448 0.588,-1.148 0.98,-1.148 0.084,0 0.21,0.07 0.364,0.21 0.21,0.21 0.378,0.28 0.56,0.28 0.336,0 0.546,-0.238 0.546,-0.63 0,-0.462 -0.294,-0.742 -0.77,-0.742 -0.588,0 -0.98,0.308 -1.68,1.316 v -1.288 l -0.07,-0.028 c -0.784,0.308 -1.288,0.504 -2.072,0.756 v 0.224 c 0.196,-0.042 0.322,-0.056 0.49,-0.056 0.35,0 0.476,0.224 0.476,0.84 v 3.5 c -0.028,0.728 -0.112,0.812 -0.994,0.966 z"
         style="font-size:14px;font-family:Times, serif;text-anchor:start"
         id="path1490" />
      <path
         d="m 638.88947,51.030464 c -0.238,0.196 -0.406,0.266 -0.616,0.266 -0.322,0 -0.42,-0.196 -0.42,-0.812 v -2.73 c 0,-0.728 -0.07,-1.134 -0.28,-1.47 -0.308,-0.504 -0.91,-0.77 -1.736,-0.77 -1.316,0 -2.352,0.686 -2.352,1.568 0,0.322 0.266,0.602 0.602,0.602 0.336,0 0.63,-0.28 0.63,-0.588 0,-0.056 -0.014,-0.126 -0.028,-0.224 -0.028,-0.126 -0.042,-0.238 -0.042,-0.336 0,-0.378 0.448,-0.686 1.008,-0.686 0.686,0 1.064,0.406 1.064,1.162 v 0.854 c -2.142,0.854 -2.394,0.98 -2.996,1.512 -0.308,0.28 -0.504,0.756 -0.504,1.218 0,0.882 0.616,1.498 1.47,1.498 0.616,0 1.19,-0.294 2.044,-1.022 0.07,0.742 0.322,1.022 0.896,1.022 0.476,0 0.77,-0.168 1.26,-0.7 z m -2.17,-0.798 c 0,0.42 -0.07,0.574 -0.364,0.742 -0.35,0.196 -0.728,0.308 -1.022,0.308 -0.49,0 -0.882,-0.476 -0.882,-1.078 v -0.056 c 0.014,-0.84 0.63,-1.372 2.268,-1.946 z"
         style="font-size:14px;font-family:Times, serif;text-anchor:start"
         id="path1492" />
      <path
         d="m 642.36144,45.654464 h -1.414 v -1.624 c 0,-0.14 -0.028,-0.182 -0.098,-0.182 -0.812,1.176 -1.232,1.652 -1.638,1.89 -0.154,0.098 -0.238,0.182 -0.238,0.266 0,0.042 0.014,0.07 0.056,0.098 h 0.742 v 4.214 c 0,1.176 0.42,1.778 1.246,1.778 0.686,0 1.218,-0.336 1.68,-1.064 l -0.182,-0.154 c -0.308,0.364 -0.532,0.49 -0.84,0.49 -0.518,0 -0.728,-0.378 -0.728,-1.26 v -4.004 h 1.414 z"
         style="font-size:14px;font-family:Times, serif;text-anchor:start"
         id="path1494" />
      <path
         d="m 642.99141,51.954464 h 3.318 v -0.21 c -0.924,-0.07 -1.022,-0.196 -1.036,-1.218 v -4.97 l -0.056,-0.042 -2.17,0.77 v 0.21 l 0.112,-0.014 c 0.168,-0.028 0.336,-0.042 0.476,-0.042 0.336,0 0.462,0.224 0.462,0.84 v 3.248 c -0.028,1.036 -0.154,1.176 -1.106,1.218 z m 1.568,-9.562 c -0.378,0 -0.7,0.322 -0.7,0.714 0,0.406 0.308,0.714 0.7,0.714 0.42,0 0.728,-0.308 0.728,-0.714 0,-0.406 -0.322,-0.714 -0.728,-0.714 z"
         style="font-size:14px;font-family:Times, serif;text-anchor:start"
         id="path1496" />
      <path
         d="m 650.15941,45.514464 c -1.834,0 -3.094,1.344 -3.094,3.276 0,1.904 1.302,3.304 3.066,3.304 1.764,0 3.108,-1.47 3.108,-3.416 0,-1.848 -1.288,-3.164 -3.08,-3.164 z m -0.182,0.392 c 1.176,0 2.002,1.344 2.002,3.262 0,1.596 -0.63,2.534 -1.68,2.534 -0.546,0 -1.064,-0.336 -1.358,-0.896 -0.392,-0.728 -0.616,-1.708 -0.616,-2.702 0,-1.33 0.644,-2.198 1.652,-2.198 z"
         style="font-size:14px;font-family:Times, serif;text-anchor:start"
         id="path1498" />
      <path
         d="m 653.91139,51.954464 h 2.968 v -0.21 c -0.7,-0.042 -0.924,-0.224 -0.924,-0.728 v -3.934 c 0.672,-0.63 0.98,-0.798 1.442,-0.798 0.686,0 1.022,0.434 1.022,1.358 v 2.926 c -0.028,0.91 -0.196,1.134 -0.882,1.176 v 0.21 h 2.912 v -0.21 c -0.686,-0.07 -0.84,-0.238 -0.854,-0.924 v -3.206 c 0,-1.316 -0.616,-2.1 -1.652,-2.1 -0.644,0 -1.078,0.238 -2.03,1.134 v -1.106 l -0.098,-0.028 c -0.728,0.266 -1.204,0.42 -1.932,0.63 v 0.238 c 0.098,-0.042 0.224,-0.056 0.378,-0.056 0.392,0 0.518,0.21 0.518,0.896 v 3.472 c -0.014,0.826 -0.168,1.008 -0.868,1.05 z"
         style="font-size:14px;font-family:Times, serif;text-anchor:start"
         id="path1500" />
    </g>
  </g>
  <g
     id="node1"
     class="node"
     transform="translate(14.22946,291.3469)">
    <title
       id="title40">sltext</title>
    <text
       text-anchor="start"
       x="8"
       y="-275.79999"
       font-family="Times, serif"
       font-size="14px"
       id="text42">Source Language</text>
    <text
       text-anchor="start"
       x="43"
       y="-260.79999"
       font-family="Times, serif"
       font-size="14px"
       id="text44">Text</text>
  </g>
  <g
     id="edge3"
     class="edge"
     transform="rotate(90,-45.478555,-156.29303)">
    <title
       id="title54">sltext-&gt;deformat</title>
    <path
       fill="none"
       stroke="#000000"
       d="m 148.81,-272 h 24.13"
       id="path56"
       sodipodi:nodetypes="cc" />
    <polygon
       fill="#000000"
       stroke="#000000"
       points="172.94,-275.5 182.94,-272 172.94,-268.5 "
       id="polygon58" />
  </g>
  <g
     id="node3"
     class="node"
     transform="translate(-145.27159,363.94031)">
    <title
       id="title61">morph</title>
    <path
       fill="none"
       stroke="#000000"
       d="m 252.5,-217 c 0,0 -74,0 -74,0 -6,0 -12,6 -12,12 0,0 0,14 0,14 0,6 6,12 12,12 0,0 74,0 74,0 6,0 12,-6 12,-12 0,0 0,-14 0,-14 0,-6 -6,-12 -12,-12"
       id="path63" />
    <text
       text-anchor="start"
       x="174.5"
       y="-201.8"
       font-family="Times, serif"
       font-size="14px"
       id="text65">Morphological</text>
    <text
       text-anchor="start"
       x="191"
       y="-186.8"
       font-family="Times, serif"
       font-size="14px"
       id="text67">Analyser</text>
  </g>
  <g
     id="edge4"
     class="edge"
     transform="translate(-153.52158,363.94031)">
    <title
       id="title70">deformat-&gt;morph</title>
    <path
       fill="none"
       stroke="#000000"
       d="m 223.75,-253.71 c 0,0 0,26.6 0,26.6"
       id="path72" />
    <polygon
       fill="#000000"
       stroke="#000000"
       points="220.25,-227.11 227.25,-227.11 223.75,-217.11 "
       id="polygon74" />
  </g>
  <g
     id="node4"
     class="node"
     transform="translate(-145.27159,363.94031)">
    <title
       id="title77">disam</title>
    <path
       fill="none"
       stroke="#000000"
       d="m 254.5,-143 c 0,0 -80,0 -80,0 -6,0 -12,6 -12,12 0,0 0,14 0,14 0,6 6,12 12,12 0,0 80,0 80,0 6,0 12,-6 12,-12 0,0 0,-14 0,-14 0,-6 -6,-12 -12,-12"
       id="path79" />
    <text
       text-anchor="start"
       x="173.5"
       y="-127.8"
       font-family="Times, serif"
       font-size="14px"
       id="text81">Morphological</text>
    <text
       text-anchor="start"
       x="170.5"
       y="-112.8"
       font-family="Times, serif"
       font-size="14px"
       id="text83">Disambiguation</text>
  </g>
  <g
     id="edge5"
     class="edge"
     transform="translate(-145.27159,363.94031)">
    <title
       id="title86">morph-&gt;disam</title>
    <path
       fill="none"
       stroke="#000000"
       d="m 215.5,-178.94 c 0,0 0,25.69 0,25.69"
       id="path88" />
    <polygon
       fill="#000000"
       stroke="#000000"
       points="219,-153.25 215.5,-143.25 212,-153.25 "
       id="polygon90" />
  </g>
  <g
     id="node5"
     class="node"
     transform="translate(-145.27159,363.94031)">
    <title
       id="title93">sep1</title>
    <path
       fill="none"
       stroke="#000000"
       stroke-dasharray="5, 2"
       d="m 251.5,-60.5 c 0,0 -74,0 -74,0 -6,0 -12,6 -12,12 0,0 0,12 0,12 0,6 6,12 12,12 0,0 74,0 74,0 6,0 12,-6 12,-12 0,0 0,-12 0,-12 0,-6 -6,-12 -12,-12"
       id="path95" />
    <text
       text-anchor="start"
       x="173.5"
       y="-38.799999"
       font-family="Times, serif"
       font-size="14px"
       id="text97">Retokenisation</text>
  </g>
  <g
     id="edge6"
     class="edge"
     transform="translate(-145.27159,363.94031)">
    <title
       id="title100">disam-&gt;sep1</title>
    <path
       fill="none"
       stroke="#000000"
       d="m 214.5,-104.69 c 0,0 0,34.13 0,34.13"
       id="path102" />
    <polygon
       fill="#000000"
       stroke="#000000"
       points="218,-70.56 214.5,-60.56 211,-70.56 "
       id="polygon104" />
  </g>
  <g
     id="node6"
     class="node"
     transform="translate(-140.77159,399.94031)">
    <title
       id="title107">biltrans</title>
    <path
       fill="none"
       stroke="#000000"
       d="m 390.5,-291 c 0,0 -38,0 -38,0 -6,0 -12,6 -12,12 0,0 0,14 0,14 0,6 6,12 12,12 0,0 38,0 38,0 6,0 12,-6 12,-12 0,0 0,-14 0,-14 0,-6 -6,-12 -12,-12"
       id="path109" />
    <text
       text-anchor="start"
       x="351"
       y="-275.79999"
       font-family="Times, serif"
       font-size="14px"
       id="text111">Lexical</text>
    <text
       text-anchor="start"
       x="348.5"
       y="-260.79999"
       font-family="Times, serif"
       font-size="14px"
       id="text113">Transfer</text>
  </g>
  <g
     id="edge7"
     class="edge"
     transform="translate(-145.27159,399.94032)">
    <title
       id="title116">sep1-&gt;biltrans:w</title>
    <path
       fill="none"
       stroke="#000000"
       d="m 263.51,-78 h 38.74 v -194 h 31.25"
       id="path118"
       sodipodi:nodetypes="cccc" />
    <polygon
       fill="#000000"
       stroke="#000000"
       points="330.5,-275.5 340.5,-272 330.5,-268.5 "
       id="polygon120"
       transform="translate(3)" />
  </g>
  <g
     id="node7"
     class="node"
     transform="translate(-140.77159,399.94031)">
    <title
       id="title123">lexsel</title>
    <path
       fill="none"
       stroke="#000000"
       d="m 393,-217 c 0,0 -43,0 -43,0 -6,0 -12,6 -12,12 0,0 0,14 0,14 0,6 6,12 12,12 0,0 43,0 43,0 6,0 12,-6 12,-12 0,0 0,-14 0,-14 0,-6 -6,-12 -12,-12"
       id="path125" />
    <text
       text-anchor="start"
       x="351"
       y="-201.8"
       font-family="Times, serif"
       font-size="14px"
       id="text127">Lexical</text>
    <text
       text-anchor="start"
       x="346"
       y="-186.8"
       font-family="Times, serif"
       font-size="14px"
       id="text129">Selection</text>
  </g>
  <g
     id="edge8"
     class="edge"
     transform="translate(-140.77159,399.94031)">
    <title
       id="title132">biltrans-&gt;lexsel</title>
    <path
       fill="none"
       stroke="#000000"
       d="m 371.5,-252.94 c 0,0 0,25.69 0,25.69"
       id="path134" />
    <polygon
       fill="#000000"
       stroke="#000000"
       points="371.5,-217.25 368,-227.25 375,-227.25 "
       id="polygon136" />
  </g>
  <g
     id="node8"
     class="node"
     transform="translate(-145.27159,399.94032)">
    <title
       id="title139">anaphora</title>
    <path
       fill="none"
       stroke="#000000"
       stroke-dasharray="5, 2"
       d="m 402,-143 c 0,0 -51,0 -51,0 -6,0 -12,6 -12,12 0,0 0,14 0,14 0,6 6,12 12,12 0,0 51,0 51,0 6,0 12,-6 12,-12 0,0 0,-14 0,-14 0,-6 -6,-12 -12,-12"
       id="path141" />
    <text
       text-anchor="start"
       x="349.5"
       y="-127.8"
       font-family="Times, serif"
       font-size="14px"
       id="text143">Anaphora</text>
    <text
       text-anchor="start"
       x="347"
       y="-112.8"
       font-family="Times, serif"
       font-size="14px"
       id="text145">Resolution</text>
  </g>
  <g
     id="edge9"
     class="edge"
     transform="translate(-140.77159,399.94031)">
    <title
       id="title148">lexsel-&gt;anaphora</title>
    <path
       fill="none"
       stroke="#000000"
       d="m 372,-178.94 c 0,0 0,25.69 0,25.69"
       id="path150" />
    <polygon
       fill="#000000"
       stroke="#000000"
       points="372,-143.25 368.5,-153.25 375.5,-153.25 "
       id="polygon152" />
  </g>
  <g
     id="node9"
     class="node"
     transform="translate(-132.27159,399.94032)">
    <title
       id="title155">t1x</title>
    <path
       fill="none"
       stroke="#000000"
       d="m 530,-290 c 0,0 -39,0 -39,0 -6,0 -12,6 -12,12 0,0 0,12 0,12 0,6 6,12 12,12 0,0 39,0 39,0 6,0 12,-6 12,-12 0,0 0,-12 0,-12 0,-6 -6,-12 -12,-12"
       id="path157" />
    <text
       text-anchor="start"
       x="487"
       y="-268.29999"
       font-family="Times, serif"
       font-size="14px"
       id="text159">Chunker</text>
  </g>
  <g
     id="edge15"
     class="edge"
     transform="translate(-145.27159,399.94032)">
    <title
       id="title162">anaphora-&gt;t1x</title>
    <path
       fill="none"
       stroke="#000000"
       d="M 437.4186,-64.209285 V -272 H 479.32"
       id="path164"
       sodipodi:nodetypes="ccc" />
    <polygon
       fill="#000000"
       stroke="#000000"
       points="478.82,-263 468.82,-259.5 468.82,-266.5 "
       id="polygon166"
       transform="translate(10.5,-9)" />
  </g>
  <g
     id="node12"
     class="node"
     transform="translate(-144.27159,378.94032)">
    <title
       id="title169">rtx</title>
    <path
       fill="none"
       stroke="#000000"
       d="m 546,-69 c 0,0 -47,0 -47,0 -6,0 -12,6 -12,12 0,0 0,29 0,29 0,6 6,12 12,12 0,0 47,0 47,0 6,0 12,-6 12,-12 0,0 0,-29 0,-29 0,-6 -6,-12 -12,-12"
       id="path171" />
    <text
       text-anchor="start"
       x="495"
       y="-53.799999"
       font-family="Times, serif"
       font-size="14px"
       id="text173">Recursive</text>
    <text
       text-anchor="start"
       x="495.5"
       y="-38.799999"
       font-family="Times, serif"
       font-size="14px"
       id="text175">Structural</text>
    <text
       text-anchor="start"
       x="499.5"
       y="-23.799999"
       font-family="Times, serif"
       font-size="14px"
       id="text177">Transfer</text>
  </g>
  <g
     id="edge10"
     class="edge"
     transform="translate(-145.27159,399.94032)">
    <title
       id="title180">anaphora-&gt;rtx</title>
    <path
       fill="none"
       stroke="#000000"
       d="M 376.5,-104.69 V -64 h 100.28"
       id="path182"
       sodipodi:nodetypes="ccc" />
    <polygon
       fill="#000000"
       stroke="#000000"
       points="476.78,-67.5 486.78,-64 476.78,-60.5 "
       id="polygon184" />
  </g>
  <g
     id="node10"
     class="node"
     transform="translate(-136.77159,399.94032)">
    <title
       id="title187">t2x</title>
    <path
       fill="none"
       stroke="#000000"
       d="m 540,-216 c 0,0 -51,0 -51,0 -6,0 -12,6 -12,12 0,0 0,12 0,12 0,6 6,12 12,12 0,0 51,0 51,0 6,0 12,-6 12,-12 0,0 0,-12 0,-12 0,-6 -6,-12 -12,-12"
       id="path189" />
    <text
       text-anchor="start"
       x="485"
       y="-194.3"
       font-family="Times, serif"
       font-size="14px"
       id="text191">Interchunk</text>
  </g>
  <g
     id="edge1"
     class="edge"
     transform="translate(-142.77159,399.94032)">
    <title
       id="title194">t1x-&gt;t2x</title>
    <path
       fill="none"
       stroke="#000000"
       d="m 521,-253.71 c 0,0 0,27.63 0,27.63"
       id="path196" />
    <polygon
       fill="#000000"
       stroke="#000000"
       points="517.5,-226.08 524.5,-226.08 521,-216.08 "
       id="polygon198" />
  </g>
  <g
     id="edge19"
     class="edge"
     transform="translate(-140.77159,399.94032)">
    <title
       id="title201">t2x-&gt;t2x</title>
    <path
       fill="none"
       stroke="#000000"
       stroke-dasharray="5, 2"
       d="m 500,-226.07 c 0.11581,-7.69923 -6.83741,-9.02112 -15.47895,-9.12114 -15.72389,-0.182 -16.72703,16.55308 -16.50369,31.52412 0.23081,15.47187 -1.03563,30.69321 17.29336,30.91581 4.38417,0.0532 14.97505,0.52489 15.93192,-6.83738"
       id="path203"
       sodipodi:nodetypes="csssc" />
    <polygon
       fill="#000000"
       stroke="#000000"
       points="496.5,-226.07 503.5,-226.07 500,-216.07 "
       id="polygon205" />
  </g>
  <g
     id="node11"
     class="node"
     transform="translate(-144.27159,399.94032)">
    <title
       id="title208">t3x</title>
    <path
       fill="none"
       stroke="#000000"
       d="m 547,-142 c 0,0 -49,0 -49,0 -6,0 -12,6 -12,12 0,0 0,12 0,12 0,6 6,12 12,12 0,0 49,0 49,0 6,0 12,-6 12,-12 0,0 0,-12 0,-12 0,-6 -6,-12 -12,-12"
       id="path210" />
    <text
       text-anchor="start"
       x="494"
       y="-120.3"
       font-family="Times, serif"
       font-size="14px"
       id="text212">Postchunk</text>
  </g>
  <g
     id="edge2"
     class="edge"
     transform="translate(-141.27159,399.94032)">
    <title
       id="title215">t2x-&gt;t3x</title>
    <path
       fill="none"
       stroke="#000000"
       d="m 519,-179.71 c 0,0 0,27.63 0,27.63"
       id="path217" />
    <polygon
       fill="#000000"
       stroke="#000000"
       points="522.5,-152.08 519,-142.08 515.5,-152.08 "
       id="polygon219" />
  </g>
  <g
     id="node13"
     class="node"
     transform="translate(-163.27159,342.94031)">
    <title
       id="title222">sep2</title>
    <path
       fill="none"
       stroke="#000000"
       stroke-dasharray="5, 2"
       d="m 802.5,-290 c 0,0 -74,0 -74,0 -6,0 -12,6 -12,12 0,0 0,12 0,12 0,6 6,12 12,12 0,0 74,0 74,0 6,0 12,-6 12,-12 0,0 0,-12 0,-12 0,-6 -6,-12 -12,-12"
       id="path224" />
    <text
       text-anchor="start"
       x="724.5"
       y="-268.29999"
       font-family="Times, serif"
       font-size="14px"
       id="text226">Retokenisation</text>
  </g>
  <g
     id="g1324"
     transform="translate(-149.27159,-15.059676)">
    <path
       fill="none"
       stroke="#000000"
       d="M 563.10211,351 H 608.75 v -59.49999"
       id="path238"
       sodipodi:nodetypes="ccc" />
    <polygon
       fill="#000000"
       stroke="#000000"
       points="706.47,-281.5 716.47,-278 706.47,-274.5 "
       id="polygon240"
       transform="translate(-14,362.5)" />
  </g>
  <g
     id="node14"
     class="node"
     transform="translate(-163.27159,342.94031)">
    <title
       id="title243">gener</title>
    <path
       fill="none"
       stroke="#000000"
       d="m 802.5,-217 c 0,0 -74,0 -74,0 -6,0 -12,6 -12,12 0,0 0,14 0,14 0,6 6,12 12,12 0,0 74,0 74,0 6,0 12,-6 12,-12 0,0 0,-14 0,-14 0,-6 -6,-12 -12,-12"
       id="path245" />
    <text
       text-anchor="start"
       x="724.5"
       y="-201.8"
       font-family="Times, serif"
       font-size="14px"
       id="text247">Morphological</text>
    <text
       text-anchor="start"
       x="738"
       y="-186.8"
       font-family="Times, serif"
       font-size="14px"
       id="text249">Generator</text>
  </g>
  <g
     id="edge11"
     class="edge"
     transform="translate(-163.27159,342.94031)">
    <title
       id="title252">sep2-&gt;gener</title>
    <path
       fill="none"
       stroke="#000000"
       d="m 765.5,-253.71 c 0,0 0,26.6 0,26.6"
       id="path254" />
    <polygon
       fill="#000000"
       stroke="#000000"
       points="765.5,-217.11 762,-227.11 769,-227.11 "
       id="polygon256" />
  </g>
  <g
     id="node15"
     class="node"
     transform="translate(-163.27159,342.94031)">
    <title
       id="title259">postgen</title>
    <path
       fill="none"
       stroke="#000000"
       stroke-dasharray="5, 2"
       d="m 802.5,-142 c 0,0 -74,0 -74,0 -6,0 -12,6 -12,12 0,0 0,12 0,12 0,6 6,12 12,12 0,0 74,0 74,0 6,0 12,-6 12,-12 0,0 0,-12 0,-12 0,-6 -6,-12 -12,-12"
       id="path261" />
    <text
       text-anchor="start"
       x="724.5"
       y="-120.3"
       font-family="Times, serif"
       font-size="14px"
       id="text263">Post-Generator</text>
  </g>
  <g
     id="edge12"
     class="edge"
     transform="translate(-163.27159,342.94031)">
    <title
       id="title266">gener-&gt;postgen</title>
    <path
       fill="none"
       stroke="#000000"
       d="m 765.5,-178.94 c 0,0 0,26.71 0,26.71"
       id="path268" />
    <polygon
       fill="#000000"
       stroke="#000000"
       points="765.5,-142.23 762,-152.23 769,-152.23 "
       id="polygon270" />
  </g>
  <g
     id="node16"
     class="node"
     transform="translate(-163.27159,342.94031)">
    <title
       id="title273">reformat</title>
    <text
       text-anchor="start"
       x="732"
       y="-38.799999"
       font-family="Times, serif"
       font-size="14px"
       id="text277">Reformatter</text>
  </g>
  <g
     id="edge13"
     class="edge"
     transform="translate(-163.27159,342.94031)">
    <title
       id="title280">postgen-&gt;reformat</title>
    <path
       fill="none"
       stroke="#000000"
       d="m 765.5,-105.91 c 0,0 0,35.37 0,35.37"
       id="path282" />
    <polygon
       fill="#000000"
       stroke="#000000"
       points="765.5,-60.54 762,-70.54 769,-70.54 "
       id="polygon284" />
  </g>
  <g
     id="node17"
     class="node"
     transform="translate(-338.97669,641.04618)">
    <title
       id="title287">tltext</title>
    <text
       text-anchor="start"
       x="895"
       y="-275.79999"
       font-family="Times, serif"
       font-size="14px"
       id="text289">Target Language</text>
    <text
       text-anchor="start"
       x="929"
       y="-260.79999"
       font-family="Times, serif"
       font-size="14px"
       id="text291">Text</text>
  </g>
  <g
     id="g1445"
     transform="translate(-8.7852071,-2.8141362)">
    <text
       text-anchor="start"
       x="46.26363"
       y="98.45446"
       font-family="Times, serif"
       font-size="14px"
       id="text51">Deformatter</text>
    <path
       id="polygon8-9"
       style="fill:none;stroke:#999999;stroke-opacity:1"
       d="m 138.01362,77.25445 v 36 h -120 v -36 z"
       sodipodi:nodetypes="ccccc" />
  </g>
  <path
     id="polygon33-1"
     style="fill:none;stroke:#999999;stroke-opacity:1"
     d="m 545.22841,318.36518 0.28012,-35.42487 h 114 l -0.28012,35.42487 z"
     sodipodi:nodetypes="ccccc" />
  <circle
     style="fill:#ffffff;fill-opacity:1;stroke:none;stroke-width:0.99975;stroke-linecap:round;stroke-miterlimit:4;stroke-dasharray:none;stroke-opacity:1"
     id="path1505"
     cx="292.48361"
     cy="334.47293"
     r="12.112426"
     inkscape:export-xdpi="200.04605"
     inkscape:export-ydpi="200.04605" />
  <text
     xml:space="preserve"
     style="font-style:normal;font-variant:normal;font-weight:normal;font-stretch:normal;font-size:14px;line-height:0.25;font-family:serif;-inkscape-font-specification:serif;letter-spacing:0px;word-spacing:0px;fill:#000000;fill-opacity:1;stroke:none;stroke-width:0.75"
     x="282.57861"
     y="339.10693"
     id="text1529"
     inkscape:export-xdpi="200.04605"
     inkscape:export-ydpi="200.04605"><tspan
       sodipodi:role="line"
       id="tspan1527"
       x="282.57861"
       y="339.10693"
       style="font-style:normal;font-variant:normal;font-weight:normal;font-stretch:normal;font-size:14px;font-family:Times, serif;-inkscape-font-specification:'Times, serif';stroke-width:0.75">OR</tspan></text>
  <path
     fill="none"
     stroke="#000000"
     d="M 414.89777,275.94032 H 516.47841 V 69.440321 h 28.22"
     id="path238-4"
     sodipodi:nodetypes="cccc" />
</svg>
