<?xml version="1.0" encoding="UTF-8" standalone="no"?>
<svg
   xmlns:dc="http://purl.org/dc/elements/1.1/"
   xmlns:cc="http://creativecommons.org/ns#"
   xmlns:rdf="http://www.w3.org/1999/02/22-rdf-syntax-ns#"
   xmlns:svg="http://www.w3.org/2000/svg"
   xmlns="http://www.w3.org/2000/svg"
   xmlns:sodipodi="http://sodipodi.sourceforge.net/DTD/sodipodi-0.dtd"
   xmlns:inkscape="http://www.inkscape.org/namespaces/inkscape"
   width="1011.4805pt"
   height="368.95047pt"
   viewBox="0 0 1011.4805 368.95047"
   version="1.1"
   id="svg302"
   sodipodi:docname="pipeline_box.svg"
   inkscape:version="1.0.2 (e86c870879, 2021-01-15)"
   inkscape:export-filename="/home/jonathan/q/ap/apertium-doc/images/pipeline_box.png"
   inkscape:export-xdpi="200.04605"
   inkscape:export-ydpi="200.04605">
  <metadata
     id="metadata308">
    <rdf:RDF>
      <cc:Work
         rdf:about="">
        <dc:format>image/svg+xml</dc:format>
        <dc:type
           rdf:resource="http://purl.org/dc/dcmitype/StillImage" />
        <dc:title></dc:title>
      </cc:Work>
    </rdf:RDF>
  </metadata>
  <defs
     id="defs306" />
  <sodipodi:namedview
     pagecolor="#ffffff"
     bordercolor="#666666"
     borderopacity="1"
     objecttolerance="10"
     gridtolerance="10"
     guidetolerance="10"
     inkscape:pageopacity="0"
     inkscape:pageshadow="2"
     inkscape:window-width="1683"
     inkscape:window-height="950"
     id="namedview304"
     showgrid="false"
     showguides="true"
     inkscape:guide-bbox="true"
     inkscape:zoom="0.80599673"
     inkscape:cx="674.32036"
     inkscape:cy="245.96699"
     inkscape:window-x="52"
     inkscape:window-y="31"
     inkscape:window-maximized="0"
     inkscape:current-layer="svg302"
     fit-margin-top="0"
     fit-margin-left="0"
     fit-margin-right="0"
     fit-margin-bottom="0"
     inkscape:document-rotation="0"
     inkscape:snap-global="true">
    <sodipodi:guide
       position="245.86343,168.47038"
       orientation="1,0"
       id="guide1310" />
    <sodipodi:guide
       position="406.80491,105.76781"
       orientation="1,0"
       id="guide1503" />
    <sodipodi:guide
       position="553.41121,83.153791"
       orientation="1,0"
       id="guide1565" />
    <sodipodi:guide
       position="913.197,261.53038"
       orientation="0,-1"
       id="guide1005" />
    <sodipodi:guide
       position="959.03706,113.10635"
       orientation="0,-1"
       id="guide1009" />
    <sodipodi:guide
       position="406.3634,206.7804"
       orientation="0,-1"
       id="guide1015" />
    <sodipodi:guide
       position="406.8634,132.7804"
       orientation="0,-1"
       id="guide1017" />
    <sodipodi:guide
       position="359.86341,356.5304"
       orientation="0,-1"
       id="guide1019" />
    <sodipodi:guide
       position="370.7303,348.43591"
       orientation="0,-1"
       id="guide1021" />
    <sodipodi:guide
       position="206.99188,274.76038"
       orientation="0,-1"
       id="guide1073" />
    <sodipodi:guide
       position="245.86343,242.47041"
       orientation="0,-1"
       id="guide1083" />
    <sodipodi:guide
       position="720.86339,84.760424"
       orientation="0,-1"
       id="guide1135" />
    <sodipodi:guide
       position="635.1134,53.530393"
       orientation="0,-1"
       id="guide1155" />
    <sodipodi:guide
       position="966.64093,65.035772"
       orientation="0,-1"
       id="guide1157" />
    <sodipodi:guide
       position="740.33791,118.55641"
       orientation="0,-1"
       id="guide1159" />
  </sodipodi:namedview>
  <polygon
     fill="#ffffff"
     stroke="transparent"
     points="-4,-415 1000,-415 1000,4 -4,4 "
     id="polygon4"
     transform="matrix(1.0074507,0,0,0.88055007,4.0298028,365.42828)"
     inkscape:export-xdpi="200.04605"
     inkscape:export-ydpi="200.04605" />
  <g
     id="edge3-4"
     class="edge"
     transform="rotate(90,275.65286,398.84296)">
    <title
       id="title54-3">sltext-&gt;deformat</title>
    <path
       fill="none"
       stroke="#000000"
       d="m 151.24188,-272 h 16.91727"
       id="path56-0"
       sodipodi:nodetypes="cc" />
    <polygon
       fill="#000000"
       stroke="#000000"
       points="182.94,-272 172.94,-268.5 172.94,-275.5 "
       id="polygon58-3"
       transform="translate(-5.1377165)" />
  </g>
  <path
     id="polygon8"
     style="fill:none;stroke:#999999;stroke-opacity:1"
     d="M 304.86343,12.420065 V 284.19005 h -120 V 12.420065 Z"
     sodipodi:nodetypes="ccccc" />
  <text
     text-anchor="start"
     x="193.24561"
     y="29.339592"
     font-family="Times, serif"
     font-size="14px"
     id="text10"
     style="font-style:normal;font-variant:normal;font-weight:bold;font-stretch:normal;font-family:Times, serif;-inkscape-font-specification:'Times, serif Bold'">Source Language</text>
  <text
     text-anchor="start"
     x="216.74561"
     y="44.339584"
     font-family="Times, serif"
     font-size="14px"
     id="text12"
     style="font-style:normal;font-variant:normal;font-weight:bold;font-stretch:normal;font-family:Times, serif;-inkscape-font-specification:'Times, serif Bold'">Analysis</text>
  <path
     id="polygon17"
     style="fill:none;stroke:#999999;stroke-width:0.99975;stroke-miterlimit:4;stroke-dasharray:none;stroke-opacity:1"
     d="M 663.36342,12.420074 V 351.92007 h -303.5 V 12.420074 Z"
     sodipodi:nodetypes="ccccc" />
  <text
     text-anchor="start"
     x="485.72052"
     y="29.807583"
     font-family="Times, serif"
     font-size="14px"
     id="text19"
     style="font-style:normal;font-variant:normal;font-weight:bold;font-stretch:normal;font-family:Times, serif;-inkscape-font-specification:'Times, serif Bold';stroke-width:0.99975;stroke-miterlimit:4;stroke-dasharray:none">Transfer</text>
  <g
     id="clust3"
     class="cluster"
     transform="translate(30.363423,379.42008)">
    <title
       id="title22">cluster_trx</title>
    <polygon
       fill="none"
       stroke="#000000"
       points="463.5,-98 463.5,-336 582.5,-336 582.5,-98 "
       id="polygon24"
       style="stroke:#999999;stroke-opacity:1" />
    <text
       text-anchor="start"
       x="500.5"
       y="-320.79999"
       font-family="Times, serif"
       font-size="14px"
       id="text26">Shallow</text>
    <text
       text-anchor="start"
       x="471.5"
       y="-305.79999"
       font-family="Times, serif"
       font-size="14px"
       id="text28">Structural Transfer</text>
  </g>
  <g
     id="g1081"
     transform="translate(175.63501,-20.520242)">
    <path
       fill="none"
       stroke="#000000"
       d="m 107.22842,108.9403 c 0,0 -74,0 -74,0 -6,0 -12,6 -12,12 0,0 0,14 0,14 0,6 6,12 12,12 0,0 74,0 74,0 6,0 12,-6 12,-12 0,0 0,-14 0,-14 0,-6 -6,-12 -12,-12"
       id="path63" />
    <text
       text-anchor="start"
       x="29.22842"
       y="124.1403"
       font-family="Times, serif"
       font-size="14px"
       id="text65">Morphological</text>
    <text
       text-anchor="start"
       x="45.72842"
       y="139.1403"
       font-family="Times, serif"
       font-size="14px"
       id="text67">Analyser</text>
  </g>
  <g
     id="node4"
     class="node"
     transform="translate(30.363433,305.42006)">
    <title
       id="title77">disam</title>
    <path
       fill="none"
       stroke="#000000"
       d="m 254.5,-143 c 0,0 -80,0 -80,0 -6,0 -12,6 -12,12 0,0 0,14 0,14 0,6 6,12 12,12 0,0 80,0 80,0 6,0 12,-6 12,-12 0,0 0,-14 0,-14 0,-6 -6,-12 -12,-12"
       id="path79" />
    <text
       text-anchor="start"
       x="173.5"
       y="-127.8"
       font-family="Times, serif"
       font-size="14px"
       id="text81">Morphological</text>
    <text
       text-anchor="start"
       x="170.5"
       y="-112.8"
       font-family="Times, serif"
       font-size="14px"
       id="text83">Disambiguation</text>
  </g>
  <g
     id="edge5"
     class="edge"
     transform="translate(30.363433,305.42006)">
    <title
       id="title86">morph-&gt;disam</title>
    <path
       fill="none"
       stroke="#000000"
       d="m 215.5,-178.94 c 0,0 0,25.69 0,25.69"
       id="path88" />
    <polygon
       fill="#000000"
       stroke="#000000"
       points="219,-153.25 215.5,-143.25 212,-153.25 "
       id="polygon90" />
  </g>
  <g
     id="node5"
     class="node"
     transform="translate(30.363433,296.67006)">
    <title
       id="title93">sep1</title>
    <path
       fill="none"
       stroke="#000000"
       stroke-dasharray="5, 2"
       d="m 251.5,-60.5 c 0,0 -74,0 -74,0 -6,0 -12,6 -12,12 0,0 0,12 0,12 0,6 6,12 12,12 0,0 74,0 74,0 6,0 12,-6 12,-12 0,0 0,-12 0,-12 0,-6 -6,-12 -12,-12"
       id="path95" />
    <text
       text-anchor="start"
       x="173.5"
       y="-38.799999"
       font-family="Times, serif"
       font-size="14px"
       id="text97">Retokenisation</text>
  </g>
  <g
     id="edge6"
     class="edge"
     transform="translate(31.363433,305.73006)">
    <title
       id="title100">disam-&gt;sep1</title>
    <path
       fill="none"
       stroke="#000000"
       d="m 214.5,-104.69 c 0,0 0,34.13 0,34.13"
       id="path102" />
    <polygon
       fill="#000000"
       stroke="#000000"
       points="214.5,-60.56 211,-70.56 218,-70.56 "
       id="polygon104"
       transform="translate(0,-9)" />
  </g>
  <g
     id="node6"
     class="node"
     transform="translate(34.863423,379.42007)">
    <title
       id="title107">biltrans</title>
    <path
       fill="none"
       stroke="#000000"
       d="m 390.5,-291 c 0,0 -38,0 -38,0 -6,0 -12,6 -12,12 0,0 0,14 0,14 0,6 6,12 12,12 0,0 38,0 38,0 6,0 12,-6 12,-12 0,0 0,-14 0,-14 0,-6 -6,-12 -12,-12"
       id="path109" />
    <text
       text-anchor="start"
       x="351"
       y="-275.79999"
       font-family="Times, serif"
       font-size="14px"
       id="text111">Lexical</text>
    <text
       text-anchor="start"
       x="348.5"
       y="-260.79999"
       font-family="Times, serif"
       font-size="14px"
       id="text113">Transfer</text>
  </g>
  <g
     id="edge7"
     class="edge"
     transform="translate(30.363423,379.42008)">
    <title
       id="title116">sep1-&gt;biltrans:w</title>
    <path
       fill="none"
       stroke="#000000"
       d="m 263.51,-124.5 h 38.74 V -272 h 31.25"
       id="path118"
       sodipodi:nodetypes="cccc" />
    <polygon
       fill="#000000"
       stroke="#000000"
       points="330.5,-275.5 340.5,-272 330.5,-268.5 "
       id="polygon120"
       transform="translate(3)" />
  </g>
  <g
     id="node7"
     class="node"
     transform="translate(34.863423,379.42007)">
    <title
       id="title123">lexsel</title>
    <path
       fill="none"
       stroke="#000000"
       d="m 393,-217 c 0,0 -43,0 -43,0 -6,0 -12,6 -12,12 0,0 0,14 0,14 0,6 6,12 12,12 0,0 43,0 43,0 6,0 12,-6 12,-12 0,0 0,-14 0,-14 0,-6 -6,-12 -12,-12"
       id="path125" />
    <text
       text-anchor="start"
       x="351"
       y="-201.8"
       font-family="Times, serif"
       font-size="14px"
       id="text127">Lexical</text>
    <text
       text-anchor="start"
       x="346"
       y="-186.8"
       font-family="Times, serif"
       font-size="14px"
       id="text129">Selection</text>
  </g>
  <g
     id="edge8"
     class="edge"
     transform="translate(34.863423,379.42007)">
    <title
       id="title132">biltrans-&gt;lexsel</title>
    <path
       fill="none"
       stroke="#000000"
       d="m 371.5,-252.94 c 0,0 0,25.69 0,25.69"
       id="path134" />
    <polygon
       fill="#000000"
       stroke="#000000"
       points="371.5,-217.25 368,-227.25 375,-227.25 "
       id="polygon136" />
  </g>
  <g
     id="node8"
     class="node"
     transform="translate(30.363423,379.42008)">
    <title
       id="title139">anaphora</title>
    <path
       fill="none"
       stroke="#000000"
       stroke-dasharray="5, 2"
       d="m 402,-143 c 0,0 -51,0 -51,0 -6,0 -12,6 -12,12 0,0 0,14 0,14 0,6 6,12 12,12 0,0 51,0 51,0 6,0 12,-6 12,-12 0,0 0,-14 0,-14 0,-6 -6,-12 -12,-12"
       id="path141" />
    <text
       text-anchor="start"
       x="349.5"
       y="-127.8"
       font-family="Times, serif"
       font-size="14px"
       id="text143">Anaphora</text>
    <text
       text-anchor="start"
       x="347"
       y="-112.8"
       font-family="Times, serif"
       font-size="14px"
       id="text145">Resolution</text>
  </g>
  <g
     id="edge9"
     class="edge"
     transform="translate(34.863423,379.42007)">
    <title
       id="title148">lexsel-&gt;anaphora</title>
    <path
       fill="none"
       stroke="#000000"
       d="m 372,-178.94 c 0,0 0,25.69 0,25.69"
       id="path150" />
    <polygon
       fill="#000000"
       stroke="#000000"
       points="372,-143.25 368.5,-153.25 375.5,-153.25 "
       id="polygon152" />
  </g>
  <g
     id="node9"
     class="node"
     transform="translate(43.363423,379.42008)">
    <title
       id="title155">t1x</title>
    <path
       fill="none"
       stroke="#000000"
       d="m 530,-290 c 0,0 -39,0 -39,0 -6,0 -12,6 -12,12 0,0 0,12 0,12 0,6 6,12 12,12 0,0 39,0 39,0 6,0 12,-6 12,-12 0,0 0,-12 0,-12 0,-6 -6,-12 -12,-12"
       id="path157" />
    <text
       text-anchor="start"
       x="487"
       y="-268.29999"
       font-family="Times, serif"
       font-size="14px"
       id="text159">Chunker</text>
  </g>
  <g
     id="edge15"
     class="edge"
     transform="translate(30.363423,379.42008)">
    <title
       id="title162">anaphora-&gt;t1x</title>
    <path
       fill="none"
       stroke="#000000"
       d="M 437.4186,-64.209285 V -272 H 479.32"
       id="path164"
       sodipodi:nodetypes="ccc" />
    <polygon
       fill="#000000"
       stroke="#000000"
       points="478.82,-263 468.82,-259.5 468.82,-266.5 "
       id="polygon166"
       transform="translate(10.5,-9)" />
  </g>
  <g
     id="node12"
     class="node"
     transform="translate(31.363423,358.42008)">
    <title
       id="title169">rtx</title>
    <path
       fill="none"
       stroke="#000000"
       d="m 546,-69 c 0,0 -47,0 -47,0 -6,0 -12,6 -12,12 0,0 0,29 0,29 0,6 6,12 12,12 0,0 47,0 47,0 6,0 12,-6 12,-12 0,0 0,-29 0,-29 0,-6 -6,-12 -12,-12"
       id="path171" />
    <text
       text-anchor="start"
       x="495"
       y="-53.799999"
       font-family="Times, serif"
       font-size="14px"
       id="text173">Recursive</text>
    <text
       text-anchor="start"
       x="495.5"
       y="-38.799999"
       font-family="Times, serif"
       font-size="14px"
       id="text175">Structural</text>
    <text
       text-anchor="start"
       x="499.5"
       y="-23.799999"
       font-family="Times, serif"
       font-size="14px"
       id="text177">Transfer</text>
  </g>
  <g
     id="edge10"
     class="edge"
     transform="translate(30.363423,379.42008)">
    <title
       id="title180">anaphora-&gt;rtx</title>
    <path
       fill="none"
       stroke="#000000"
       d="M 376.5,-104.69 V -64 h 100.28"
       id="path182"
       sodipodi:nodetypes="ccc" />
    <polygon
       fill="#000000"
       stroke="#000000"
       points="476.78,-67.5 486.78,-64 476.78,-60.5 "
       id="polygon184" />
  </g>
  <g
     id="node10"
     class="node"
     transform="translate(38.863423,379.42008)">
    <title
       id="title187">t2x</title>
    <path
       fill="none"
       stroke="#000000"
       d="m 540,-216 c 0,0 -51,0 -51,0 -6,0 -12,6 -12,12 0,0 0,12 0,12 0,6 6,12 12,12 0,0 51,0 51,0 6,0 12,-6 12,-12 0,0 0,-12 0,-12 0,-6 -6,-12 -12,-12"
       id="path189" />
    <text
       text-anchor="start"
       x="485"
       y="-194.3"
       font-family="Times, serif"
       font-size="14px"
       id="text191">Interchunk</text>
  </g>
  <g
     id="edge1"
     class="edge"
     transform="translate(32.863423,379.42008)">
    <title
       id="title194">t1x-&gt;t2x</title>
    <path
       fill="none"
       stroke="#000000"
       d="m 521,-253.71 c 0,0 0,27.63 0,27.63"
       id="path196" />
    <polygon
       fill="#000000"
       stroke="#000000"
       points="517.5,-226.08 524.5,-226.08 521,-216.08 "
       id="polygon198" />
  </g>
  <g
     id="edge19"
     class="edge"
     transform="translate(34.863423,379.42008)">
    <title
       id="title201">t2x-&gt;t2x</title>
    <path
       fill="none"
       stroke="#000000"
       stroke-dasharray="5, 2"
       d="m 500,-226.07 c 0.11581,-7.69923 -6.83741,-9.02112 -15.47895,-9.12114 -15.72389,-0.182 -16.72703,16.55308 -16.50369,31.52412 0.23081,15.47187 -1.03563,30.69321 17.29336,30.91581 4.38417,0.0532 14.97505,0.52489 15.93192,-6.83738"
       id="path203"
       sodipodi:nodetypes="csssc" />
    <polygon
       fill="#000000"
       stroke="#000000"
       points="496.5,-226.07 503.5,-226.07 500,-216.07 "
       id="polygon205" />
  </g>
  <g
     id="node11"
     class="node"
     transform="translate(31.363423,379.42008)">
    <title
       id="title208">t3x</title>
    <path
       fill="none"
       stroke="#000000"
       d="m 547,-142 c 0,0 -49,0 -49,0 -6,0 -12,6 -12,12 0,0 0,12 0,12 0,6 6,12 12,12 0,0 49,0 49,0 6,0 12,-6 12,-12 0,0 0,-12 0,-12 0,-6 -6,-12 -12,-12"
       id="path210" />
    <text
       text-anchor="start"
       x="494"
       y="-120.3"
       font-family="Times, serif"
       font-size="14px"
       id="text212">Postchunk</text>
  </g>
  <g
     id="edge2"
     class="edge"
     transform="translate(34.363423,379.42008)">
    <title
       id="title215">t2x-&gt;t3x</title>
    <path
       fill="none"
       stroke="#000000"
       d="m 519,-179.71 c 0,0 0,27.63 0,27.63"
       id="path217" />
    <polygon
       fill="#000000"
       stroke="#000000"
       points="522.5,-152.08 519,-142.08 515.5,-152.08 "
       id="polygon219" />
  </g>
  <g
     id="g1113"
     transform="translate(175.63501,37.24974)">
    <path
       id="polygon33"
       style="fill:none;stroke:#999999;stroke-opacity:1"
       d="m 659.22841,-24.82968 v 271.76999 h -114 V -24.82968 Z"
       sodipodi:nodetypes="ccccc" />
    <text
       text-anchor="start"
       x="602.13739"
       y="-7.1273265"
       font-family="Times, serif"
       font-size="14px"
       id="text19-3"
       style="font-style:normal;font-variant:normal;font-weight:bold;font-stretch:normal;line-height:1.1;font-family:Times, serif;-inkscape-font-specification:'Times, serif Bold';stroke-width:0.99975;stroke-miterlimit:4;stroke-dasharray:none"><tspan
         sodipodi:role="line"
         id="tspan1077"
         x="602.13739"
         y="-7.1273265"
         style="text-align:center;text-anchor:middle">Target Language</tspan><tspan
         sodipodi:role="line"
         id="tspan1079"
         x="602.13739"
         y="8.2726736"
         style="text-align:center;text-anchor:middle">Generation</tspan></text>
  </g>
  <g
     id="node13"
     class="node"
     transform="translate(12.363423,380.19005)">
    <title
       id="title222">sep2</title>
    <path
       fill="none"
       stroke="#000000"
       stroke-dasharray="5, 2"
       d="m 802.5,-290 c 0,0 -74,0 -74,0 -6,0 -12,6 -12,12 0,0 0,12 0,12 0,6 6,12 12,12 0,0 74,0 74,0 6,0 12,-6 12,-12 0,0 0,-12 0,-12 0,-6 -6,-12 -12,-12"
       id="path224" />
    <text
       text-anchor="start"
       x="724.5"
       y="-268.29999"
       font-family="Times, serif"
       font-size="14px"
       id="text226">Retokenisation</text>
  </g>
  <g
     id="g1324"
     transform="translate(26.363423,-35.579916)">
    <path
       fill="none"
       stroke="#000000"
       d="M 563.10211,351 H 608.75 v -59.49999"
       id="path238"
       sodipodi:nodetypes="ccc" />
    <polygon
       fill="#000000"
       stroke="#000000"
       points="716.47,-278 706.47,-274.5 706.47,-281.5 "
       id="polygon240"
       transform="translate(-14,421)" />
  </g>
  <g
     id="node14"
     class="node"
     transform="translate(12.363423,379.17006)">
    <title
       id="title243">gener</title>
    <path
       fill="none"
       stroke="#000000"
       d="m 802.5,-217 c 0,0 -74,0 -74,0 -6,0 -12,6 -12,12 0,0 0,14 0,14 0,6 6,12 12,12 0,0 74,0 74,0 6,0 12,-6 12,-12 0,0 0,-14 0,-14 0,-6 -6,-12 -12,-12"
       id="path245" />
    <text
       text-anchor="start"
       x="724.5"
       y="-201.8"
       font-family="Times, serif"
       font-size="14px"
       id="text247">Morphological</text>
    <text
       text-anchor="start"
       x="738"
       y="-186.8"
       font-family="Times, serif"
       font-size="14px"
       id="text249">Generator</text>
  </g>
  <g
     id="edge11"
     class="edge"
     transform="translate(12.363423,380.19005)">
    <title
       id="title252">sep2-&gt;gener</title>
    <path
       fill="none"
       stroke="#000000"
       d="m 765.5,-253.71 c 0,0 0,26.6 0,26.6"
       id="path254" />
    <polygon
       fill="#000000"
       stroke="#000000"
       points="769,-227.11 765.5,-217.11 762,-227.11 "
       id="polygon256"
       transform="translate(0,-0.90998788)" />
  </g>
  <g
     id="node15"
     class="node"
     transform="translate(12.363423,380.19005)">
    <title
       id="title259">postgen</title>
    <path
       fill="none"
       stroke="#000000"
       stroke-dasharray="5, 2"
       d="m 802.5,-144.01999 c 0,0 -74,0 -74,0 -6,0 -12,6 -12,12 0,0 0,12 0,12 0,6 6,12 12,12 0,0 74,0 74,0 6,0 12,-6 12,-12 0,0 0,-12 0,-12 0,-6 -6,-12 -12,-12"
       id="path261" />
    <text
       text-anchor="start"
       x="724.5"
       y="-120.3"
       font-family="Times, serif"
       font-size="14px"
       id="text263">Post-Generator</text>
  </g>
  <g
     id="edge12"
     class="edge"
     transform="translate(12.363423,378.40006)">
    <title
       id="title266">gener-&gt;postgen</title>
    <path
       fill="none"
       stroke="#000000"
       d="M 765.5,-178.43365 V -152.23"
       id="path268"
       sodipodi:nodetypes="cc" />
    <polygon
       fill="#000000"
       stroke="#000000"
       points="765.5,-142.23 762,-152.23 769,-152.23 "
       id="polygon270" />
  </g>
  <g
     id="node16"
     class="node"
     transform="translate(180.99581,298.73136)">
    <title
       id="title273">reformat</title>
    <text
       text-anchor="start"
       x="732"
       y="-38.799999"
       font-family="Times, serif"
       font-size="14px"
       id="text277">Reformatter</text>
  </g>
  <g
     id="node17"
     class="node"
     transform="translate(5.2907098,590.34951)">
    <title
       id="title287">tltext</title>
    <text
       text-anchor="start"
       x="895"
       y="-275.79999"
       font-family="Times, serif"
       font-size="14px"
       id="text289">Target Language</text>
    <text
       text-anchor="start"
       x="929"
       y="-260.79999"
       font-family="Times, serif"
       font-size="14px"
       id="text291">Text</text>
  </g>
  <path
     id="polygon33-1"
     style="fill:none;stroke:#999999;stroke-opacity:1"
     d="m 889.49581,274.15623 0.28012,-35.42487 h 113.99997 l -0.2801,35.42487 z"
     sodipodi:nodetypes="ccccc" />
  <circle
     style="fill:#ffffff;fill-opacity:1;stroke:none;stroke-width:0.99975;stroke-linecap:round;stroke-miterlimit:4;stroke-dasharray:none;stroke-opacity:1"
     id="path1505"
     cx="468.11862"
     cy="313.9527"
     r="12.112426"
     inkscape:export-xdpi="200.04605"
     inkscape:export-ydpi="200.04605" />
  <text
     xml:space="preserve"
     style="font-style:normal;font-variant:normal;font-weight:normal;font-stretch:normal;font-size:14px;line-height:0.25;font-family:serif;-inkscape-font-specification:serif;letter-spacing:0px;word-spacing:0px;fill:#000000;fill-opacity:1;stroke:none;stroke-width:0.75"
     x="458.21362"
     y="318.5867"
     id="text1529"
     inkscape:export-xdpi="200.04605"
     inkscape:export-ydpi="200.04605"><tspan
       sodipodi:role="line"
       id="tspan1527"
       x="458.21362"
       y="318.5867"
       style="font-style:normal;font-variant:normal;font-weight:normal;font-stretch:normal;font-size:14px;font-family:Times, serif;-inkscape-font-specification:'Times, serif';stroke-width:0.75">OR</tspan></text>
  <path
     fill="none"
     stroke="#000000"
     d="m 590.53278,255.42008 h 101.58064 v -148 h 28.22"
     id="path238-4"
     sodipodi:nodetypes="cccc" />
  <g
     id="edge7-3"
     class="edge"
     transform="translate(-148.13658,379.42008)">
    <title
       id="title116-5">sep1-&gt;biltrans:w</title>
    <path
       fill="none"
       stroke="#000000"
       d="M 276.93451,-272 H 333.5"
       id="path118-6"
       sodipodi:nodetypes="cc" />
    <polygon
       fill="#000000"
       stroke="#000000"
       points="330.5,-268.5 330.5,-275.5 340.5,-272 "
       id="polygon120-2"
       transform="translate(3)" />
  </g>
  <g
     id="node1"
     class="node"
     transform="translate(12.432573,305.88356)">
    <title
       id="title40">sltext</title>
    <text
       text-anchor="start"
       x="8"
       y="-275.79999"
       font-family="Times, serif"
       font-size="14px"
       id="text42">Source Language</text>
    <text
       text-anchor="start"
       x="43"
       y="-260.79999"
       font-family="Times, serif"
       font-size="14px"
       id="text44">Text</text>
  </g>
  <g
     id="edge3"
     class="edge"
     transform="rotate(90,-90.410801,-111.84282)">
    <title
       id="title54">sltext-&gt;deformat</title>
    <path
       fill="none"
       stroke="#000000"
       d="M 73.249995,-272 H 101.12446"
       id="path56"
       sodipodi:nodetypes="cc" />
    <polygon
       fill="#000000"
       stroke="#000000"
       points="182.94,-272 172.94,-268.5 172.94,-275.5 "
       id="polygon58"
       transform="translate(-72.434369)" />
  </g>
  <g
     id="g1445"
     transform="translate(-9.2672668,13.22561)">
    <text
       text-anchor="start"
       x="46.26363"
       y="98.45446"
       font-family="Times, serif"
       font-size="14px"
       id="text51">Deformatter</text>
    <path
       id="polygon8-9"
       style="fill:none;stroke:#999999;stroke-opacity:1"
       d="m 138.01362,77.25445 v 36 h -120 v -36 z"
       sodipodi:nodetypes="ccccc" />
  </g>
  <g
     id="edge7-8"
     class="edge"
     transform="translate(562.86298,379.42008)">
    <title
       id="title116-7">sep1-&gt;biltrans:w</title>
    <path
       fill="none"
       stroke="#000000"
       d="m 263.51,-123.49998 h 51.57134"
       id="path118-9"
       sodipodi:nodetypes="cc" />
    <polygon
       fill="#000000"
       stroke="#000000"
       points="340.5,-272 330.5,-268.5 330.5,-275.5 "
       id="polygon120-20"
       transform="translate(-15.489365,148.50002)" />
  </g>
</svg>
