<?xml version="1.0" encoding="UTF-8" standalone="no"?>
<svg
   xmlns:dc="http://purl.org/dc/elements/1.1/"
   xmlns:cc="http://creativecommons.org/ns#"
   xmlns:rdf="http://www.w3.org/1999/02/22-rdf-syntax-ns#"
   xmlns:svg="http://www.w3.org/2000/svg"
   xmlns="http://www.w3.org/2000/svg"
   xmlns:sodipodi="http://sodipodi.sourceforge.net/DTD/sodipodi-0.dtd"
   xmlns:inkscape="http://www.inkscape.org/namespaces/inkscape"
   width="667.97052pt"
   height="389.4707pt"
   viewBox="0 0 667.97052 389.4707"
   version="1.1"
   id="svg302"
   sodipodi:docname="pipeline_box.svg"
   inkscape:version="1.0.2 (e86c870879, 2021-01-15)"
   inkscape:export-filename="/home/jonathan/q/ap/apertium-doc/images/pipeline_box.png"
   inkscape:export-xdpi="200.04605"
   inkscape:export-ydpi="200.04605">
  <metadata
     id="metadata308">
    <rdf:RDF>
      <cc:Work
         rdf:about="">
        <dc:format>image/svg+xml</dc:format>
        <dc:type
           rdf:resource="http://purl.org/dc/dcmitype/StillImage" />
        <dc:title></dc:title>
      </cc:Work>
    </rdf:RDF>
  </metadata>
  <defs
     id="defs306" />
  <sodipodi:namedview
     pagecolor="#ffffff"
     bordercolor="#666666"
     borderopacity="1"
     objecttolerance="10"
     gridtolerance="10"
     guidetolerance="10"
     inkscape:pageopacity="0"
     inkscape:pageshadow="2"
     inkscape:window-width="1672"
     inkscape:window-height="753"
     id="namedview304"
     showgrid="false"
     showguides="true"
     inkscape:guide-bbox="true"
     inkscape:zoom="1.0417985"
     inkscape:cx="445.3137"
     inkscape:cy="263.59958"
     inkscape:window-x="43"
     inkscape:window-y="92"
     inkscape:window-maximized="0"
     inkscape:current-layer="svg302"
     fit-margin-top="0"
     fit-margin-left="0"
     fit-margin-right="0"
     fit-margin-bottom="0"
     inkscape:document-rotation="0">
    <sodipodi:guide
       position="70.22842,168.47038"
       orientation="1,0"
       id="guide1310" />
    <sodipodi:guide
       position="231.16991,105.76782"
       orientation="1,0"
       id="guide1503" />
    <sodipodi:guide
       position="377.77622,83.153786"
       orientation="1,0"
       id="guide1565" />
  </sodipodi:namedview>
  <polygon
     fill="#ffffff"
     stroke="transparent"
     points="-4,-415 1000,-415 1000,4 -4,4 "
     id="polygon4"
     transform="matrix(0.66530931,0,0,0.92952439,2.6612372,385.75262)"
     inkscape:export-xdpi="200.04605"
     inkscape:export-ydpi="200.04605" />
  <g
     id="edge3-4"
     class="edge"
     transform="rotate(90,80.134053,250.09437)">
    <title
       id="title54-3">sltext-&gt;deformat</title>
    <path
       fill="none"
       stroke="#000000"
       d="m 148.81,-272 h 24.13"
       id="path56-0"
       sodipodi:nodetypes="cc" />
    <polygon
       fill="#000000"
       stroke="#000000"
       points="172.94,-268.5 172.94,-275.5 182.94,-272 "
       id="polygon58-3" />
  </g>
  <path
     id="polygon8"
     style="fill:none;stroke:#999999;stroke-opacity:1"
     d="m 129.22841,129.94031 v 253.5 h -120 v -253.5 z"
     sodipodi:nodetypes="ccccc" />
  <text
     text-anchor="start"
     x="17.610582"
     y="362.64032"
     font-family="Times, serif"
     font-size="14px"
     id="text10"
     style="font-style:normal;font-variant:normal;font-weight:bold;font-stretch:normal;font-family:Times, serif;-inkscape-font-specification:'Times, serif Bold'">Source Language</text>
  <text
     text-anchor="start"
     x="41.110584"
     y="377.64032"
     font-family="Times, serif"
     font-size="14px"
     id="text12"
     style="font-style:normal;font-variant:normal;font-weight:bold;font-stretch:normal;font-family:Times, serif;-inkscape-font-specification:'Times, serif Bold'">Analysis</text>
  <path
     id="polygon17"
     style="fill:none;stroke:#999999;stroke-width:0.99975;stroke-miterlimit:4;stroke-dasharray:none;stroke-opacity:1"
     d="M 487.72841,32.940314 V 372.44031 h -303.5 V 32.940314 Z"
     sodipodi:nodetypes="ccccc" />
  <text
     text-anchor="start"
     x="310.08551"
     y="48.140327"
     font-family="Times, serif"
     font-size="14px"
     id="text19"
     style="font-style:normal;font-variant:normal;font-weight:bold;font-stretch:normal;font-family:Times, serif;-inkscape-font-specification:'Times, serif Bold';stroke-width:0.99975;stroke-miterlimit:4;stroke-dasharray:none">Transfer</text>
  <g
     id="clust3"
     class="cluster"
     transform="translate(-145.27159,399.94032)">
    <title
       id="title22">cluster_trx</title>
    <polygon
       fill="none"
       stroke="#000000"
       points="582.5,-336 582.5,-98 463.5,-98 463.5,-336 "
       id="polygon24"
       style="stroke:#999999;stroke-opacity:1" />
    <text
       text-anchor="start"
       x="500.5"
       y="-320.79999"
       font-family="Times, serif"
       font-size="14px"
       id="text26">Shallow</text>
    <text
       text-anchor="start"
       x="471.5"
       y="-305.79999"
       font-family="Times, serif"
       font-size="14px"
       id="text28">Structural Transfer</text>
  </g>
  <g
     id="node1"
     class="node"
     transform="translate(14.22946,291.3469)">
    <title
       id="title40">sltext</title>
    <text
       text-anchor="start"
       x="8"
       y="-275.79999"
       font-family="Times, serif"
       font-size="14px"
       id="text42">Source Language</text>
    <text
       text-anchor="start"
       x="43"
       y="-260.79999"
       font-family="Times, serif"
       font-size="14px"
       id="text44">Text</text>
  </g>
  <g
     id="edge3"
     class="edge"
     transform="rotate(90,-45.478555,-156.29303)">
    <title
       id="title54">sltext-&gt;deformat</title>
    <path
       fill="none"
       stroke="#000000"
       d="m 148.81,-272 h 24.13"
       id="path56"
       sodipodi:nodetypes="cc" />
    <polygon
       fill="#000000"
       stroke="#000000"
       points="172.94,-275.5 182.94,-272 172.94,-268.5 "
       id="polygon58" />
  </g>
  <g
     id="node3"
     class="node"
     transform="translate(-145.27159,363.94031)">
    <title
       id="title61">morph</title>
    <path
       fill="none"
       stroke="#000000"
       d="m 252.5,-217 c 0,0 -74,0 -74,0 -6,0 -12,6 -12,12 0,0 0,14 0,14 0,6 6,12 12,12 0,0 74,0 74,0 6,0 12,-6 12,-12 0,0 0,-14 0,-14 0,-6 -6,-12 -12,-12"
       id="path63" />
    <text
       text-anchor="start"
       x="174.5"
       y="-201.8"
       font-family="Times, serif"
       font-size="14px"
       id="text65">Morphological</text>
    <text
       text-anchor="start"
       x="191"
       y="-186.8"
       font-family="Times, serif"
       font-size="14px"
       id="text67">Analyser</text>
  </g>
  <g
     id="edge4"
     class="edge"
     transform="translate(-153.52158,363.94031)">
    <title
       id="title70">deformat-&gt;morph</title>
    <path
       fill="none"
       stroke="#000000"
       d="m 223.75,-253.71 c 0,0 0,26.6 0,26.6"
       id="path72" />
    <polygon
       fill="#000000"
       stroke="#000000"
       points="220.25,-227.11 227.25,-227.11 223.75,-217.11 "
       id="polygon74" />
  </g>
  <g
     id="node4"
     class="node"
     transform="translate(-145.27159,363.94031)">
    <title
       id="title77">disam</title>
    <path
       fill="none"
       stroke="#000000"
       d="m 254.5,-143 c 0,0 -80,0 -80,0 -6,0 -12,6 -12,12 0,0 0,14 0,14 0,6 6,12 12,12 0,0 80,0 80,0 6,0 12,-6 12,-12 0,0 0,-14 0,-14 0,-6 -6,-12 -12,-12"
       id="path79" />
    <text
       text-anchor="start"
       x="173.5"
       y="-127.8"
       font-family="Times, serif"
       font-size="14px"
       id="text81">Morphological</text>
    <text
       text-anchor="start"
       x="170.5"
       y="-112.8"
       font-family="Times, serif"
       font-size="14px"
       id="text83">Disambiguation</text>
  </g>
  <g
     id="edge5"
     class="edge"
     transform="translate(-145.27159,363.94031)">
    <title
       id="title86">morph-&gt;disam</title>
    <path
       fill="none"
       stroke="#000000"
       d="m 215.5,-178.94 c 0,0 0,25.69 0,25.69"
       id="path88" />
    <polygon
       fill="#000000"
       stroke="#000000"
       points="219,-153.25 215.5,-143.25 212,-153.25 "
       id="polygon90" />
  </g>
  <g
     id="node5"
     class="node"
     transform="translate(-145.27159,363.94031)">
    <title
       id="title93">sep1</title>
    <path
       fill="none"
       stroke="#000000"
       stroke-dasharray="5, 2"
       d="m 251.5,-60.5 c 0,0 -74,0 -74,0 -6,0 -12,6 -12,12 0,0 0,12 0,12 0,6 6,12 12,12 0,0 74,0 74,0 6,0 12,-6 12,-12 0,0 0,-12 0,-12 0,-6 -6,-12 -12,-12"
       id="path95" />
    <text
       text-anchor="start"
       x="173.5"
       y="-38.799999"
       font-family="Times, serif"
       font-size="14px"
       id="text97">Retokenisation</text>
  </g>
  <g
     id="edge6"
     class="edge"
     transform="translate(-145.27159,363.94031)">
    <title
       id="title100">disam-&gt;sep1</title>
    <path
       fill="none"
       stroke="#000000"
       d="m 214.5,-104.69 c 0,0 0,34.13 0,34.13"
       id="path102" />
    <polygon
       fill="#000000"
       stroke="#000000"
       points="218,-70.56 214.5,-60.56 211,-70.56 "
       id="polygon104" />
  </g>
  <g
     id="node6"
     class="node"
     transform="translate(-140.77159,399.94031)">
    <title
       id="title107">biltrans</title>
    <path
       fill="none"
       stroke="#000000"
       d="m 390.5,-291 c 0,0 -38,0 -38,0 -6,0 -12,6 -12,12 0,0 0,14 0,14 0,6 6,12 12,12 0,0 38,0 38,0 6,0 12,-6 12,-12 0,0 0,-14 0,-14 0,-6 -6,-12 -12,-12"
       id="path109" />
    <text
       text-anchor="start"
       x="351"
       y="-275.79999"
       font-family="Times, serif"
       font-size="14px"
       id="text111">Lexical</text>
    <text
       text-anchor="start"
       x="348.5"
       y="-260.79999"
       font-family="Times, serif"
       font-size="14px"
       id="text113">Transfer</text>
  </g>
  <g
     id="edge7"
     class="edge"
     transform="translate(-145.27159,399.94032)">
    <title
       id="title116">sep1-&gt;biltrans:w</title>
    <path
       fill="none"
       stroke="#000000"
       d="m 263.51,-78 h 38.74 v -194 h 31.25"
       id="path118"
       sodipodi:nodetypes="cccc" />
    <polygon
       fill="#000000"
       stroke="#000000"
       points="330.5,-275.5 340.5,-272 330.5,-268.5 "
       id="polygon120"
       transform="translate(3)" />
  </g>
  <g
     id="node7"
     class="node"
     transform="translate(-140.77159,399.94031)">
    <title
       id="title123">lexsel</title>
    <path
       fill="none"
       stroke="#000000"
       d="m 393,-217 c 0,0 -43,0 -43,0 -6,0 -12,6 -12,12 0,0 0,14 0,14 0,6 6,12 12,12 0,0 43,0 43,0 6,0 12,-6 12,-12 0,0 0,-14 0,-14 0,-6 -6,-12 -12,-12"
       id="path125" />
    <text
       text-anchor="start"
       x="351"
       y="-201.8"
       font-family="Times, serif"
       font-size="14px"
       id="text127">Lexical</text>
    <text
       text-anchor="start"
       x="346"
       y="-186.8"
       font-family="Times, serif"
       font-size="14px"
       id="text129">Selection</text>
  </g>
  <g
     id="edge8"
     class="edge"
     transform="translate(-140.77159,399.94031)">
    <title
       id="title132">biltrans-&gt;lexsel</title>
    <path
       fill="none"
       stroke="#000000"
       d="m 371.5,-252.94 c 0,0 0,25.69 0,25.69"
       id="path134" />
    <polygon
       fill="#000000"
       stroke="#000000"
       points="371.5,-217.25 368,-227.25 375,-227.25 "
       id="polygon136" />
  </g>
  <g
     id="node8"
     class="node"
     transform="translate(-145.27159,399.94032)">
    <title
       id="title139">anaphora</title>
    <path
       fill="none"
       stroke="#000000"
       stroke-dasharray="5, 2"
       d="m 402,-143 c 0,0 -51,0 -51,0 -6,0 -12,6 -12,12 0,0 0,14 0,14 0,6 6,12 12,12 0,0 51,0 51,0 6,0 12,-6 12,-12 0,0 0,-14 0,-14 0,-6 -6,-12 -12,-12"
       id="path141" />
    <text
       text-anchor="start"
       x="349.5"
       y="-127.8"
       font-family="Times, serif"
       font-size="14px"
       id="text143">Anaphora</text>
    <text
       text-anchor="start"
       x="347"
       y="-112.8"
       font-family="Times, serif"
       font-size="14px"
       id="text145">Resolution</text>
  </g>
  <g
     id="edge9"
     class="edge"
     transform="translate(-140.77159,399.94031)">
    <title
       id="title148">lexsel-&gt;anaphora</title>
    <path
       fill="none"
       stroke="#000000"
       d="m 372,-178.94 c 0,0 0,25.69 0,25.69"
       id="path150" />
    <polygon
       fill="#000000"
       stroke="#000000"
       points="372,-143.25 368.5,-153.25 375.5,-153.25 "
       id="polygon152" />
  </g>
  <g
     id="node9"
     class="node"
     transform="translate(-132.27159,399.94032)">
    <title
       id="title155">t1x</title>
    <path
       fill="none"
       stroke="#000000"
       d="m 530,-290 c 0,0 -39,0 -39,0 -6,0 -12,6 -12,12 0,0 0,12 0,12 0,6 6,12 12,12 0,0 39,0 39,0 6,0 12,-6 12,-12 0,0 0,-12 0,-12 0,-6 -6,-12 -12,-12"
       id="path157" />
    <text
       text-anchor="start"
       x="487"
       y="-268.29999"
       font-family="Times, serif"
       font-size="14px"
       id="text159">Chunker</text>
  </g>
  <g
     id="edge15"
     class="edge"
     transform="translate(-145.27159,399.94032)">
    <title
       id="title162">anaphora-&gt;t1x</title>
    <path
       fill="none"
       stroke="#000000"
       d="M 437.4186,-64.209285 V -272 H 479.32"
       id="path164"
       sodipodi:nodetypes="ccc" />
    <polygon
       fill="#000000"
       stroke="#000000"
       points="478.82,-263 468.82,-259.5 468.82,-266.5 "
       id="polygon166"
       transform="translate(10.5,-9)" />
  </g>
  <g
     id="node12"
     class="node"
     transform="translate(-144.27159,378.94032)">
    <title
       id="title169">rtx</title>
    <path
       fill="none"
       stroke="#000000"
       d="m 546,-69 c 0,0 -47,0 -47,0 -6,0 -12,6 -12,12 0,0 0,29 0,29 0,6 6,12 12,12 0,0 47,0 47,0 6,0 12,-6 12,-12 0,0 0,-29 0,-29 0,-6 -6,-12 -12,-12"
       id="path171" />
    <text
       text-anchor="start"
       x="495"
       y="-53.799999"
       font-family="Times, serif"
       font-size="14px"
       id="text173">Recursive</text>
    <text
       text-anchor="start"
       x="495.5"
       y="-38.799999"
       font-family="Times, serif"
       font-size="14px"
       id="text175">Structural</text>
    <text
       text-anchor="start"
       x="499.5"
       y="-23.799999"
       font-family="Times, serif"
       font-size="14px"
       id="text177">Transfer</text>
  </g>
  <g
     id="edge10"
     class="edge"
     transform="translate(-145.27159,399.94032)">
    <title
       id="title180">anaphora-&gt;rtx</title>
    <path
       fill="none"
       stroke="#000000"
       d="M 376.5,-104.69 V -64 h 100.28"
       id="path182"
       sodipodi:nodetypes="ccc" />
    <polygon
       fill="#000000"
       stroke="#000000"
       points="476.78,-67.5 486.78,-64 476.78,-60.5 "
       id="polygon184" />
  </g>
  <g
     id="node10"
     class="node"
     transform="translate(-136.77159,399.94032)">
    <title
       id="title187">t2x</title>
    <path
       fill="none"
       stroke="#000000"
       d="m 540,-216 c 0,0 -51,0 -51,0 -6,0 -12,6 -12,12 0,0 0,12 0,12 0,6 6,12 12,12 0,0 51,0 51,0 6,0 12,-6 12,-12 0,0 0,-12 0,-12 0,-6 -6,-12 -12,-12"
       id="path189" />
    <text
       text-anchor="start"
       x="485"
       y="-194.3"
       font-family="Times, serif"
       font-size="14px"
       id="text191">Interchunk</text>
  </g>
  <g
     id="edge1"
     class="edge"
     transform="translate(-142.77159,399.94032)">
    <title
       id="title194">t1x-&gt;t2x</title>
    <path
       fill="none"
       stroke="#000000"
       d="m 521,-253.71 c 0,0 0,27.63 0,27.63"
       id="path196" />
    <polygon
       fill="#000000"
       stroke="#000000"
       points="517.5,-226.08 524.5,-226.08 521,-216.08 "
       id="polygon198" />
  </g>
  <g
     id="edge19"
     class="edge"
     transform="translate(-140.77159,399.94032)">
    <title
       id="title201">t2x-&gt;t2x</title>
    <path
       fill="none"
       stroke="#000000"
       stroke-dasharray="5, 2"
       d="m 500,-226.07 c 0.11581,-7.69923 -6.83741,-9.02112 -15.47895,-9.12114 -15.72389,-0.182 -16.72703,16.55308 -16.50369,31.52412 0.23081,15.47187 -1.03563,30.69321 17.29336,30.91581 4.38417,0.0532 14.97505,0.52489 15.93192,-6.83738"
       id="path203"
       sodipodi:nodetypes="csssc" />
    <polygon
       fill="#000000"
       stroke="#000000"
       points="496.5,-226.07 503.5,-226.07 500,-216.07 "
       id="polygon205" />
  </g>
  <g
     id="node11"
     class="node"
     transform="translate(-144.27159,399.94032)">
    <title
       id="title208">t3x</title>
    <path
       fill="none"
       stroke="#000000"
       d="m 547,-142 c 0,0 -49,0 -49,0 -6,0 -12,6 -12,12 0,0 0,12 0,12 0,6 6,12 12,12 0,0 49,0 49,0 6,0 12,-6 12,-12 0,0 0,-12 0,-12 0,-6 -6,-12 -12,-12"
       id="path210" />
    <text
       text-anchor="start"
       x="494"
       y="-120.3"
       font-family="Times, serif"
       font-size="14px"
       id="text212">Postchunk</text>
  </g>
  <g
     id="edge2"
     class="edge"
     transform="translate(-141.27159,399.94032)">
    <title
       id="title215">t2x-&gt;t3x</title>
    <path
       fill="none"
       stroke="#000000"
       d="m 519,-179.71 c 0,0 0,27.63 0,27.63"
       id="path217" />
    <polygon
       fill="#000000"
       stroke="#000000"
       points="522.5,-152.08 519,-142.08 515.5,-152.08 "
       id="polygon219" />
  </g>
  <g
     id="g1113">
    <path
       id="polygon33"
       style="fill:none;stroke:#999999;stroke-opacity:1"
       d="m 659.22841,6.94031 v 240 h -114 v -240 z"
       sodipodi:nodetypes="ccccc" />
    <text
       text-anchor="start"
       x="602.13739"
       y="22.736723"
       font-family="Times, serif"
       font-size="14px"
       id="text19-3"
       style="font-style:normal;font-variant:normal;font-weight:bold;font-stretch:normal;line-height:1.1;font-family:Times, serif;-inkscape-font-specification:'Times, serif Bold';stroke-width:0.99975;stroke-miterlimit:4;stroke-dasharray:none"><tspan
         sodipodi:role="line"
         id="tspan1077"
         x="602.13739"
         y="22.736723"
         style="text-align:center;text-anchor:middle">Target Language</tspan><tspan
         sodipodi:role="line"
         id="tspan1079"
         x="602.13739"
         y="38.136723"
         style="text-align:center;text-anchor:middle">Generation</tspan></text>
  </g>
  <g
     id="node13"
     class="node"
     transform="translate(-163.27159,342.94031)">
    <title
       id="title222">sep2</title>
    <path
       fill="none"
       stroke="#000000"
       stroke-dasharray="5, 2"
       d="m 802.5,-290 c 0,0 -74,0 -74,0 -6,0 -12,6 -12,12 0,0 0,12 0,12 0,6 6,12 12,12 0,0 74,0 74,0 6,0 12,-6 12,-12 0,0 0,-12 0,-12 0,-6 -6,-12 -12,-12"
       id="path224" />
    <text
       text-anchor="start"
       x="724.5"
       y="-268.29999"
       font-family="Times, serif"
       font-size="14px"
       id="text226">Retokenisation</text>
  </g>
  <g
     id="g1324"
     transform="translate(-149.27159,-15.059676)">
    <path
       fill="none"
       stroke="#000000"
       d="M 563.10211,351 H 608.75 v -59.49999"
       id="path238"
       sodipodi:nodetypes="ccc" />
    <polygon
       fill="#000000"
       stroke="#000000"
       points="706.47,-281.5 716.47,-278 706.47,-274.5 "
       id="polygon240"
       transform="translate(-14,362.5)" />
  </g>
  <g
     id="node14"
     class="node"
     transform="translate(-163.27159,342.94031)">
    <title
       id="title243">gener</title>
    <path
       fill="none"
       stroke="#000000"
       d="m 802.5,-217 c 0,0 -74,0 -74,0 -6,0 -12,6 -12,12 0,0 0,14 0,14 0,6 6,12 12,12 0,0 74,0 74,0 6,0 12,-6 12,-12 0,0 0,-14 0,-14 0,-6 -6,-12 -12,-12"
       id="path245" />
    <text
       text-anchor="start"
       x="724.5"
       y="-201.8"
       font-family="Times, serif"
       font-size="14px"
       id="text247">Morphological</text>
    <text
       text-anchor="start"
       x="738"
       y="-186.8"
       font-family="Times, serif"
       font-size="14px"
       id="text249">Generator</text>
  </g>
  <g
     id="edge11"
     class="edge"
     transform="translate(-163.27159,342.94031)">
    <title
       id="title252">sep2-&gt;gener</title>
    <path
       fill="none"
       stroke="#000000"
       d="m 765.5,-253.71 c 0,0 0,26.6 0,26.6"
       id="path254" />
    <polygon
       fill="#000000"
       stroke="#000000"
       points="765.5,-217.11 762,-227.11 769,-227.11 "
       id="polygon256" />
  </g>
  <g
     id="node15"
     class="node"
     transform="translate(-163.27159,342.94031)">
    <title
       id="title259">postgen</title>
    <path
       fill="none"
       stroke="#000000"
       stroke-dasharray="5, 2"
       d="m 802.5,-142 c 0,0 -74,0 -74,0 -6,0 -12,6 -12,12 0,0 0,12 0,12 0,6 6,12 12,12 0,0 74,0 74,0 6,0 12,-6 12,-12 0,0 0,-12 0,-12 0,-6 -6,-12 -12,-12"
       id="path261" />
    <text
       text-anchor="start"
       x="724.5"
       y="-120.3"
       font-family="Times, serif"
       font-size="14px"
       id="text263">Post-Generator</text>
  </g>
  <g
     id="edge12"
     class="edge"
     transform="translate(-163.27159,342.94031)">
    <title
       id="title266">gener-&gt;postgen</title>
    <path
       fill="none"
       stroke="#000000"
       d="m 765.5,-178.94 c 0,0 0,26.71 0,26.71"
       id="path268" />
    <polygon
       fill="#000000"
       stroke="#000000"
       points="765.5,-142.23 762,-152.23 769,-152.23 "
       id="polygon270" />
  </g>
  <g
     id="node16"
     class="node"
     transform="translate(-163.27159,342.94031)">
    <title
       id="title273">reformat</title>
    <text
       text-anchor="start"
       x="732"
       y="-38.799999"
       font-family="Times, serif"
       font-size="14px"
       id="text277">Reformatter</text>
  </g>
  <g
     id="node17"
     class="node"
     transform="translate(-338.97669,641.04618)">
    <title
       id="title287">tltext</title>
    <text
       text-anchor="start"
       x="895"
       y="-275.79999"
       font-family="Times, serif"
       font-size="14px"
       id="text289">Target Language</text>
    <text
       text-anchor="start"
       x="929"
       y="-260.79999"
       font-family="Times, serif"
       font-size="14px"
       id="text291">Text</text>
  </g>
  <g
     id="g1445"
     transform="translate(-8.7852071,-2.8141362)">
    <text
       text-anchor="start"
       x="46.26363"
       y="98.45446"
       font-family="Times, serif"
       font-size="14px"
       id="text51">Deformatter</text>
    <path
       id="polygon8-9"
       style="fill:none;stroke:#999999;stroke-opacity:1"
       d="m 138.01362,77.25445 v 36 h -120 v -36 z"
       sodipodi:nodetypes="ccccc" />
  </g>
  <path
     id="polygon33-1"
     style="fill:none;stroke:#999999;stroke-opacity:1"
     d="m 545.22841,318.36518 0.28012,-35.42487 h 114 l -0.28012,35.42487 z"
     sodipodi:nodetypes="ccccc" />
  <circle
     style="fill:#ffffff;fill-opacity:1;stroke:none;stroke-width:0.99975;stroke-linecap:round;stroke-miterlimit:4;stroke-dasharray:none;stroke-opacity:1"
     id="path1505"
     cx="292.48361"
     cy="334.47293"
     r="12.112426"
     inkscape:export-xdpi="200.04605"
     inkscape:export-ydpi="200.04605" />
  <text
     xml:space="preserve"
     style="font-style:normal;font-variant:normal;font-weight:normal;font-stretch:normal;font-size:14px;line-height:0.25;font-family:serif;-inkscape-font-specification:serif;letter-spacing:0px;word-spacing:0px;fill:#000000;fill-opacity:1;stroke:none;stroke-width:0.75"
     x="282.57861"
     y="339.10693"
     id="text1529"
     inkscape:export-xdpi="200.04605"
     inkscape:export-ydpi="200.04605"><tspan
       sodipodi:role="line"
       id="tspan1527"
       x="282.57861"
       y="339.10693"
       style="font-style:normal;font-variant:normal;font-weight:normal;font-stretch:normal;font-size:14px;font-family:Times, serif;-inkscape-font-specification:'Times, serif';stroke-width:0.75">OR</tspan></text>
  <path
     fill="none"
     stroke="#000000"
     d="M 414.89777,275.94032 H 516.47841 V 69.440321 h 28.22"
     id="path238-4"
     sodipodi:nodetypes="cccc" />
  <g
     id="edge13"
     class="edge"
     transform="translate(-163.27159,342.94031)">
    <title
       id="title280">postgen-&gt;reformat</title>
    <path
       fill="none"
       stroke="#000000"
       d="m 765.5,-105.91 c 0,0 0,35.37 0,35.37"
       id="path282" />
    <polygon
       fill="#000000"
       stroke="#000000"
       points="765.5,-60.54 762,-70.54 769,-70.54 "
       id="polygon284" />
  </g>
</svg>
